<svg width="790" height="680" viewBox="0 0 790 680" fill="none" xmlns="http://www.w3.org/2000/svg">
<path fill-rule="evenodd" clip-rule="evenodd" d="M135.542 155.18C76.7453 155.18 29.0928 202.832 29.0928 261.616C29.0928 286.823 38.04 311.218 54.3383 330.446L115.241 278.83C111.162 274.022 108.924 267.922 108.924 261.616C108.924 246.927 120.84 235.01 135.542 235.01V155.18ZM68.6484 344.429C87.5896 359.722 111.198 368.064 135.542 368.066C192.482 368.066 239.337 323.252 241.875 266.365L188.702 263.997C187.433 292.434 164.006 314.841 135.542 314.841C123.364 314.841 111.566 310.668 102.095 303.029L68.6484 344.429ZM240.265 242.584C232.339 198.96 198.199 164.82 154.575 156.893L147.812 194.094C175.935 199.209 197.95 221.223 203.064 249.347L240.265 242.584Z" fill="#EEEEEE"/>
<path fill-rule="evenodd" clip-rule="evenodd" d="M84.9576 557.885C64.5757 543.915 42.188 535.15 28.1702 514.088C4.5406 478.572 9.73449 426.409 55.8355 412.761C82.4143 404.894 108.444 422.28 134.629 425.314C180.61 430.639 238.377 409.774 270.365 376.472C329.648 314.766 254.425 231.389 307.272 166.31C311.176 161.498 315.916 157.199 321.254 154.02C363.582 128.807 398.936 184.23 440.369 180.851C471.318 178.326 484.129 139.658 511.926 129.113C563.639 109.489 630.325 139.981 636.653 197.991C639.411 223.301 625.047 246.445 628.868 271.631C628.856 271.627 628.844 271.624 628.844 271.62C652.343 318.338 720.509 294.618 743.84 341.968C780.102 415.586 687.638 434.394 659.399 480.966C645.728 503.521 659.948 531.795 656.39 556.75L84.9576 557.885Z" fill="#EEEEEE"/>
<path d="M651.448 103.765C651.448 93.765 654.153 85.6471 659.528 79.4156C664.92 73.1841 671.993 70.0674 680.714 70.0674C689.573 70.0674 696.699 73.1466 702.091 79.3029C707.483 85.4613 710.171 93.8026 710.171 104.325V112.386C710.171 122.462 707.483 130.561 702.091 136.682C696.699 142.8 689.643 145.861 680.905 145.861C672.115 145.861 665.006 142.781 659.58 136.625C654.153 130.467 651.448 122.163 651.448 111.716V103.765ZM669.289 112.386C669.289 116.865 670.363 120.467 672.496 123.191C674.628 125.915 677.437 127.277 680.905 127.277C684.372 127.277 687.129 125.896 689.175 123.134C691.22 120.373 692.243 116.677 692.243 112.05V103.765C692.243 99.2883 691.22 95.6681 689.175 92.9064C687.129 90.1448 684.303 88.764 680.714 88.764C677.316 88.764 674.559 90.126 672.444 92.8501C670.346 95.5741 669.289 99.3615 669.289 104.214V112.386ZM716.117 195.458C716.117 185.38 718.839 177.265 724.3 171.106C729.744 164.95 736.801 161.871 745.487 161.871C754.277 161.871 761.385 164.912 766.812 170.996C772.221 177.079 774.926 185.456 774.926 196.128V204.19C774.926 214.192 772.273 222.27 766.951 228.428C761.611 234.585 754.52 237.664 745.66 237.664C736.749 237.664 729.588 234.566 724.196 228.372C718.822 222.178 716.117 213.966 716.117 203.743V195.458ZM733.958 204.19C733.958 208.295 735.067 211.802 737.304 214.714C739.54 217.624 742.314 219.08 745.66 219.08C753.219 219.08 756.999 214.041 756.999 203.966V195.458C756.999 190.979 755.941 187.377 753.844 184.653C751.746 181.929 748.954 180.567 745.487 180.567C742.002 180.567 739.228 181.929 737.113 184.653C735.015 187.377 733.958 191.092 733.958 195.794V204.19ZM686.193 223.223L673.103 214.714L739.159 87.3079L752.266 95.8164L686.193 223.223Z" fill="#EEEEEE"/>
<path fill-rule="evenodd" clip-rule="evenodd" d="M632.234 555.771C632.946 546.564 636.019 537.396 638.932 528.699C646.703 505.545 657.898 484.754 677.736 469.823C687.373 462.573 700.446 455.782 712.942 457.495C718.861 458.304 725.465 461.722 725.17 468.563C724.66 480.795 709.989 490.351 701.023 496.297C679.118 510.834 638.449 526.578 632.234 555.771Z" fill="#383D3F"/>
<mask id="mask0_412_8743" style="mask-type:luminance" maskUnits="userSpaceOnUse" x="632" y="457" width="94" height="99">
<path d="M632.234 555.769C632.946 546.562 636.019 537.394 638.932 528.697C646.703 505.543 657.898 484.752 677.736 469.821C687.373 462.571 700.446 455.781 712.942 457.493C718.861 458.303 725.465 461.72 725.17 468.561C724.66 480.793 709.989 490.349 701.023 496.295C679.118 510.832 638.449 526.576 632.234 555.769Z" fill="white"/>
</mask>
<g mask="url(#mask0_412_8743)">
<path fill-rule="evenodd" clip-rule="evenodd" d="M719.793 451.202C721.47 455.382 720.761 460.333 719.89 464.606C719.116 468.46 718.035 472.379 716.052 475.798C708.86 488.15 693.733 493.343 680.348 495.375C674.301 496.294 664.609 496.907 659.868 491.94C656.61 488.521 658.965 485.232 659.159 481.394C659.207 480.378 658.401 480.136 657.546 480.394C652.918 481.748 648.951 488.344 646.467 492.005C639.017 503.051 634.26 516.42 632.292 529.563C631.599 534.191 630.567 540.658 633.55 544.754C637.291 549.898 645.806 545.963 650.144 543.931C651.402 543.335 652.66 542.706 653.901 542.06C655.337 541.319 656.772 540.545 658.175 539.77C660.384 538.561 662.545 537.271 664.69 535.981C677.801 528.144 740.451 495.585 748.708 480.184C757.319 464.106 734.678 456.656 719.793 451.202Z" fill="#1A1A1B"/>
</g>
<path fill-rule="evenodd" clip-rule="evenodd" d="M659.672 438.272C664.759 433.409 671.166 429.771 677.242 426.318C693.428 417.134 710.355 411.031 729.205 412.65C738.361 413.438 749.232 416.235 755.451 423.562C758.398 427.032 760.407 432.33 756.759 436.061C750.248 442.742 737.064 440.702 728.952 439.516C709.13 436.622 678.047 424.869 659.672 438.272Z" fill="#383D3F"/>
<mask id="mask1_412_8743" style="mask-type:luminance" maskUnits="userSpaceOnUse" x="659" y="412" width="100" height="29">
<path d="M659.672 438.268C664.759 433.405 671.166 429.767 677.242 426.314C693.428 417.13 710.355 411.027 729.205 412.646C738.361 413.434 749.232 416.231 755.451 423.558C758.398 427.028 760.407 432.326 756.759 436.058C750.248 442.738 737.064 440.698 728.952 439.512C709.13 436.618 678.047 424.865 659.672 438.268Z" fill="white"/>
</mask>
<g mask="url(#mask1_412_8743)">
<path fill-rule="evenodd" clip-rule="evenodd" d="M762.538 423.475C761.363 426.7 758.443 429.148 755.775 431.13C753.375 432.923 750.769 434.597 747.905 435.528C737.541 438.878 726.317 434.13 717.689 428.475C713.791 425.921 707.98 421.339 707.816 416.109C707.707 412.513 710.716 411.844 712.778 409.764C713.322 409.213 712.988 408.665 712.372 408.377C709.057 406.791 703.451 408.516 700.18 409.33C690.334 411.808 680.835 416.973 673.034 423.43C670.286 425.703 666.412 428.847 666.021 432.689C665.527 437.51 672.36 439.609 675.854 440.662C676.871 440.963 677.905 441.246 678.938 441.512C680.129 441.821 681.337 442.112 682.527 442.386C684.396 442.824 686.278 443.191 688.151 443.55C699.576 445.772 751.684 459.165 764.202 454.626C777.266 449.884 768.209 434.141 762.538 423.475Z" fill="#1A1A1B"/>
</g>
<path fill-rule="evenodd" clip-rule="evenodd" d="M636.71 467.697C634.552 461.973 633.822 455.609 633.128 449.573C631.29 433.499 632.169 417.881 639.88 403.353C643.627 396.297 649.565 388.552 657.543 386.072C661.322 384.895 666.244 385.092 667.987 389.279C671.115 396.762 664.996 406.615 661.286 412.7C652.224 427.571 632.242 448.436 636.71 467.697Z" fill="#383D3F"/>
<mask id="mask2_412_8743" style="mask-type:luminance" maskUnits="userSpaceOnUse" x="632" y="385" width="37" height="83">
<path d="M636.711 467.693C634.552 461.969 633.823 455.605 633.129 449.569C631.291 433.495 632.17 417.877 639.881 403.349C643.628 396.293 649.566 388.548 657.544 386.068C661.323 384.891 666.245 385.088 667.988 389.276C671.116 396.758 664.997 406.611 661.287 412.696C652.225 427.567 632.243 448.432 636.711 467.693Z" fill="white"/>
</mask>
<g mask="url(#mask2_412_8743)">
<path fill-rule="evenodd" clip-rule="evenodd" d="M659.886 380.371C662.066 382.408 663.03 385.578 663.708 388.386C664.325 390.916 664.777 393.571 664.547 396.179C663.7 405.61 656.082 412.972 648.621 417.95C645.251 420.199 639.608 423.288 635.368 421.639C632.454 420.502 632.943 417.867 631.982 415.51C631.726 414.887 631.174 414.968 630.733 415.363C628.337 417.475 627.808 422.546 627.346 425.44C625.977 434.159 626.876 443.516 629.386 451.954C630.269 454.926 631.465 459.096 634.405 460.716C638.094 462.752 642.099 458.001 644.131 455.564C644.718 454.852 645.296 454.122 645.86 453.386C646.513 452.538 647.157 451.671 647.781 450.812C648.767 449.466 649.702 448.086 650.626 446.709C656.292 438.326 684.742 401.201 685.372 389.643C686.025 377.578 670.348 379.464 659.886 380.371Z" fill="#1A1A1B"/>
</g>
<path fill-rule="evenodd" clip-rule="evenodd" d="M625.497 555.771C624.786 546.564 621.712 537.396 618.799 528.699C611.028 505.545 599.834 484.754 579.996 469.823C570.359 462.573 557.286 455.782 544.789 457.495C538.87 458.304 532.267 461.722 532.562 468.563C533.072 480.795 547.742 490.351 556.708 496.297C578.613 510.834 619.283 526.578 625.497 555.771Z" fill="#383D3F"/>
<mask id="mask3_412_8743" style="mask-type:luminance" maskUnits="userSpaceOnUse" x="532" y="457" width="94" height="99">
<path d="M625.496 555.769C624.785 546.562 621.711 537.394 618.798 528.697C611.027 505.543 599.833 484.752 579.995 469.821C570.358 462.571 557.285 455.781 544.788 457.493C538.869 458.303 532.266 461.72 532.561 468.561C533.071 480.793 547.741 490.349 556.707 496.295C578.612 510.832 619.282 526.576 625.496 555.769Z" fill="white"/>
</mask>
<g mask="url(#mask3_412_8743)">
<path fill-rule="evenodd" clip-rule="evenodd" d="M537.937 451.202C536.26 455.382 536.97 460.333 537.841 464.606C538.615 468.46 539.695 472.379 541.679 475.798C548.871 488.15 563.997 493.343 577.382 495.375C583.429 496.294 593.121 496.907 597.862 491.94C601.12 488.521 598.765 485.232 598.572 481.394C598.524 480.378 599.33 480.136 600.185 480.394C604.813 481.748 608.78 488.344 611.263 492.005C618.714 503.051 623.471 516.42 625.438 529.563C626.132 534.191 627.164 540.658 624.18 544.754C620.439 549.898 611.924 545.963 607.586 543.931C606.329 543.335 605.071 542.706 603.829 542.06C602.394 541.319 600.959 540.545 599.556 539.77C597.346 538.561 595.185 537.271 593.041 535.981C579.93 528.144 517.28 495.585 509.023 480.184C500.412 464.106 523.053 456.656 537.937 451.202Z" fill="#1A1A1B"/>
</g>
<path fill-rule="evenodd" clip-rule="evenodd" d="M635.155 551.214C634.692 533.873 633.606 515.216 635.6 497.321C637.505 480.379 642.17 464.112 653.334 450.6C665.424 435.946 682.66 426.754 698.097 416.065C715.279 404.159 730.325 390.531 736.112 368.06C737.875 361.287 738.533 354.245 737.857 347.281C737.127 339.856 734.67 332.696 731.375 326.002C729.791 322.777 725.874 321.452 722.651 323.042C719.428 324.632 718.093 328.542 719.695 331.766C722.295 337.057 724.307 342.694 724.894 348.563C725.428 354.008 724.876 359.509 723.505 364.805C718.556 383.948 705.326 395.213 690.672 405.356C674.274 416.717 656.13 426.731 643.274 442.302C618.293 472.583 621.142 514.8 622.121 551.561C622.228 555.164 625.22 558.005 628.816 557.901C632.413 557.814 635.244 554.817 635.155 551.214Z" fill="#383D3F"/>
<mask id="mask4_412_8743" style="mask-type:luminance" maskUnits="userSpaceOnUse" x="621" y="322" width="118" height="236">
<path d="M635.157 551.213C634.694 533.872 633.608 515.215 635.602 497.32C637.507 480.378 642.172 464.111 653.336 450.599C665.426 435.945 682.662 426.753 698.099 416.064C715.281 404.158 730.327 390.53 736.114 368.059C737.876 361.286 738.535 354.244 737.859 347.28C737.129 339.855 734.671 332.695 731.377 326.002C729.793 322.776 725.876 321.451 722.653 323.041C719.43 324.631 718.094 328.541 719.697 331.765C722.297 337.056 724.309 342.693 724.896 348.562C725.43 354.007 724.878 359.508 723.507 364.804C718.557 383.947 705.328 395.212 690.674 405.355C674.275 416.716 656.132 426.73 643.276 442.301C618.295 472.582 621.144 514.799 622.123 551.56C622.23 555.163 625.222 558.004 628.818 557.9C632.415 557.813 635.246 554.816 635.157 551.213Z" fill="white"/>
</mask>
<g mask="url(#mask4_412_8743)">
<path fill-rule="evenodd" clip-rule="evenodd" d="M702.641 313.823C712.528 321.918 716.322 371.701 723.462 382.11C725.156 384.602 727.763 394.351 731.17 394.909C733.803 395.335 736.059 391.508 737.177 389.731C741.159 383.448 743.355 375.819 745.259 368.709C750.214 350.37 752.944 328.28 747.372 309.802C746.442 306.68 745.182 303.535 743.429 300.779C735.733 288.758 721.699 294.807 713.263 302.338C709.368 305.825 705.919 309.746 702.641 313.823Z" fill="#1A1A1B"/>
</g>
<path d="M712.962 363.708C746.733 363.708 774.109 336.332 774.109 302.561C774.109 268.791 746.733 241.414 712.962 241.414C679.192 241.414 651.815 268.791 651.815 302.561C651.815 336.332 679.192 363.708 712.962 363.708Z" fill="#00FF96"/>
<mask id="mask5_412_8743" style="mask-type:luminance" maskUnits="userSpaceOnUse" x="651" y="241" width="124" height="123">
<path d="M712.962 363.704C746.733 363.704 774.109 336.328 774.109 302.557C774.109 268.787 746.733 241.41 712.962 241.41C679.192 241.41 651.815 268.787 651.815 302.557C651.815 336.328 679.192 363.704 712.962 363.704Z" fill="white"/>
</mask>
<g mask="url(#mask5_412_8743)">
<path fill-rule="evenodd" clip-rule="evenodd" d="M762.811 254.65C768.906 284.742 766.955 321.107 739.476 340.281C734.225 343.921 728.494 346.814 722.447 348.876C707.256 354.069 689.033 353.988 674.455 346.925C670.165 344.861 666.085 342.232 662.618 338.959C660.441 336.911 658.28 333.492 655.571 332.153C652.878 330.815 652.136 334.234 652.297 336.169C652.878 343.458 657.812 350.682 662.247 356.165C679.309 377.274 707.481 383.467 732.929 375.243C776.808 361.068 799.772 294.708 762.811 254.65Z" fill="#00CC70"/>
</g>
<path fill-rule="evenodd" clip-rule="evenodd" d="M755.193 212.033L757.61 227.577L773.159 229.992L757.61 232.406L755.193 247.949L752.776 232.406L737.241 229.992L752.776 227.577L755.193 212.033Z" fill="#00FF96"/>
<path fill-rule="evenodd" clip-rule="evenodd" d="M779.452 201.488L780.871 210.614L790 212.032L780.871 213.449L779.452 222.574L778.033 213.449L768.913 212.032L778.033 210.614L779.452 201.488Z" fill="#00FF96"/>
<path fill-rule="evenodd" clip-rule="evenodd" d="M779.452 241.146L780.871 250.272L790 251.69L780.871 253.107L779.452 262.232L778.033 253.107L768.913 251.69L778.033 250.272L779.452 241.146Z" fill="#00FF96"/>
<path d="M727.559 310.965C726.431 309.011 724.992 307.768 723.238 307.24C721.489 306.708 719.032 306.704 715.866 307.229C712.707 307.75 709.904 308.073 707.466 308.194C705.02 308.318 702.766 308.142 700.696 307.669C698.641 307.199 696.704 306.314 695.004 305.067C693.274 303.811 691.737 302.012 690.388 299.676C688.063 295.648 687.445 291.604 688.533 287.542C689.622 283.481 692.171 280.008 696.193 277.113L691.776 269.463L697.493 266.162L701.972 273.92C706.539 272.078 710.856 271.929 714.924 273.474C718.991 275.019 722.37 278.113 725.053 282.761L714.72 288.727C713.068 285.867 711.239 284.071 709.246 283.33C707.247 282.594 705.256 282.797 703.282 283.937C701.327 285.066 700.133 286.495 699.698 288.223C699.264 289.952 699.615 291.791 700.743 293.746C701.789 295.557 703.149 296.711 704.836 297.198C706.516 297.69 709.111 297.686 712.62 297.185C716.129 296.685 719.094 296.412 721.513 296.365C723.932 296.319 726.141 296.569 728.145 297.113C730.109 297.643 731.949 298.557 733.558 299.803C735.168 301.051 736.599 302.759 737.851 304.928C740.191 308.98 740.823 313.001 739.759 316.984C738.69 320.97 736.067 324.47 731.899 327.481L736.007 334.596L730.323 337.877L726.236 330.798C721.043 333.097 716.259 333.547 711.878 332.152C707.496 330.756 703.895 327.615 701.074 322.729L711.408 316.763C713.046 319.599 714.975 321.385 717.196 322.121C719.418 322.856 721.789 322.496 724.318 321.036C726.413 319.827 727.747 318.318 728.328 316.504C728.903 314.695 728.646 312.849 727.559 310.965Z" fill="white"/>
<path fill-rule="evenodd" clip-rule="evenodd" d="M76.8291 556.138H680.129V559.728H76.8291V556.138Z" fill="black"/>
<path fill-rule="evenodd" clip-rule="evenodd" d="M0 556.589H58.5741V560.404H0V556.589Z" fill="black"/>
<path fill-rule="evenodd" clip-rule="evenodd" d="M384.86 189.311C374.226 208.967 347.822 310.357 347.822 310.357C347.822 310.357 239.687 276.918 206.94 281.94C186.952 285.004 181.283 320.229 227.557 346.173C273.855 372.125 350.869 388.43 381.621 366.47C414.202 343.189 411.642 192.406 411.642 192.406C411.642 192.406 389.142 181.403 384.86 189.311Z" fill="#B5B5B5"/>
<mask id="mask6_412_8743" style="mask-type:luminance" maskUnits="userSpaceOnUse" x="192" y="186" width="220" height="191">
<path d="M384.86 189.31C374.226 208.966 347.822 310.356 347.822 310.356C347.822 310.356 239.687 276.917 206.94 281.939C186.952 285.003 181.283 320.228 227.557 346.172C273.855 372.124 350.869 388.429 381.621 366.469C414.202 343.188 411.642 192.405 411.642 192.405C411.642 192.405 389.142 181.402 384.86 189.31Z" fill="white"/>
</mask>
<g mask="url(#mask6_412_8743)">
<path fill-rule="evenodd" clip-rule="evenodd" d="M415.855 323.804C409.909 330.899 399.414 335.276 391.27 338.981C364.823 351.014 333.026 354.529 304.883 346.448C291.403 342.575 280.095 335.697 268.048 328.801C263.892 326.421 258.293 323.633 254.209 327.671C248.848 332.962 249.146 343.258 250.221 349.992C253.445 370.329 268.907 387.194 288.31 393.457C327.426 406.091 387.294 350.602 415.855 323.804Z" fill="#8C8C8C"/>
<path fill-rule="evenodd" clip-rule="evenodd" d="M249.724 370.364C249.936 358.502 259.856 346.586 269.394 340.802C276.039 336.771 284.69 333.657 289.457 327.19C295.684 318.741 287.384 310.315 289.319 301.444C290.038 298.166 292.643 295.97 294.154 293.094C296.889 287.874 294.949 283.015 291.733 278.59C274.521 254.969 233.024 256.677 205.646 270.027C192.501 276.439 179.549 286.058 181.078 302.305C181.995 311.994 187.845 320.651 193.925 327.915C205.137 341.315 235.526 360.366 249.724 370.364Z" fill="#05DC7B"/>
<path fill-rule="evenodd" clip-rule="evenodd" d="M279.464 335.237C274.377 332.631 260.957 324.169 256.049 319.655C253.589 317.396 251.321 314.948 249.136 312.425C248.754 311.987 247.655 310.23 246.879 310.713C246.031 311.235 246.581 313.544 246.676 314.274C247.154 318.088 247.799 321.891 248.443 325.679C250.043 335.107 252.455 351.513 262.413 345.69C266.974 343.017 274.33 339.708 279.464 335.237Z" fill="#00FF96"/>
</g>
<path fill-rule="evenodd" clip-rule="evenodd" d="M285.665 517.951C267.561 534.874 296.497 558.956 296.497 558.956C325.404 559.915 352.656 560.929 383.617 564.111C389.885 563.95 371.344 522.326 353.028 527.041C313.659 537.195 294.065 510.101 285.665 517.951Z" fill="#00FF96"/>
<mask id="mask7_412_8743" style="mask-type:luminance" maskUnits="userSpaceOnUse" x="279" y="516" width="106" height="49">
<path d="M285.667 517.952C267.563 534.875 296.499 558.957 296.499 558.957C325.406 559.916 352.658 560.93 383.619 564.112C389.887 563.951 371.346 522.327 353.029 527.042C313.661 537.196 294.067 510.102 285.667 517.952Z" fill="white"/>
</mask>
<g mask="url(#mask7_412_8743)">
<path fill-rule="evenodd" clip-rule="evenodd" d="M276.851 515.593C278.2 522.972 282.618 531.116 288.624 535.677C297.245 542.22 309.674 544.93 320.134 546.757C328.838 548.274 340.253 548.906 347.429 542.698C354.116 536.895 353.399 527.378 349.519 520.19C342.653 507.438 328.086 499.51 313.985 498.113C304.098 497.122 285.937 511.605 276.851 515.593Z" fill="#05DC7B"/>
</g>
<path fill-rule="evenodd" clip-rule="evenodd" d="M181.871 450.262C220.273 477 279.995 451.435 279.995 451.435L283.793 522.409C302.125 535.725 331.586 539.37 360.379 525.733C360.379 525.733 358.81 426.924 338.06 394.861C302.126 339.357 194.473 358.902 194.473 358.902C194.473 358.902 164.776 438.353 181.871 450.262Z" fill="#393939"/>
<mask id="mask8_412_8743" style="mask-type:luminance" maskUnits="userSpaceOnUse" x="176" y="355" width="185" height="180">
<path d="M181.869 450.261C220.271 476.999 279.993 451.434 279.993 451.434L283.791 522.408C302.123 535.724 331.584 539.369 360.377 525.732C360.377 525.732 358.808 426.923 338.058 394.86C302.124 339.356 194.471 358.901 194.471 358.901C194.471 358.901 164.774 438.352 181.869 450.261Z" fill="white"/>
</mask>
<g mask="url(#mask8_412_8743)">
<path fill-rule="evenodd" clip-rule="evenodd" d="M312.739 360.191C306.554 362.971 300.787 366.97 295.569 371.258C291.45 374.633 287.844 378.177 285.122 382.778C282.984 386.405 281.576 390.332 280.68 394.435C278.567 404.088 280.155 413.035 287.08 420.301C295.366 429.016 306.351 431.845 306.936 445.811C307.474 458.782 303.235 471.583 299.892 483.933C297.265 493.664 294.793 504.708 298.519 514.499C300.441 519.526 304.142 523.729 309.277 525.592C315.688 527.932 324.393 527.407 326.769 535.454C329.491 544.624 316.309 548.147 309.79 548.135C290.972 548.087 275.355 531.729 263.88 518.678C235.248 486.13 206.293 442.081 217.612 396.934C224.788 368.332 248.848 335.136 281.838 337.467C287.605 337.873 307.414 358.038 312.739 360.191Z" fill="black"/>
</g>
<path fill-rule="evenodd" clip-rule="evenodd" d="M615.89 224.996C615.89 219.241 613.605 213.721 609.543 209.65C605.469 205.58 599.954 203.294 594.191 203.294H348.913C343.162 203.294 337.648 205.58 333.573 209.65C329.499 213.721 327.214 219.241 327.214 224.996V544.011C327.214 549.763 329.499 555.273 333.573 559.348C337.648 563.424 343.162 565.711 348.913 565.711H594.191C599.954 565.711 605.469 563.424 609.543 559.348C613.605 555.273 615.89 549.763 615.89 544.011V224.996Z" fill="black"/>
<path fill-rule="evenodd" clip-rule="evenodd" d="M599.129 232.242C599.129 226.486 596.843 220.966 592.781 216.896C588.707 212.825 583.192 210.539 577.429 210.539H332.152C326.401 210.539 320.886 212.825 316.812 216.896C312.738 220.966 310.452 226.486 310.452 232.242V551.256C310.452 557.008 312.738 562.518 316.812 566.594C320.886 570.669 326.401 572.956 332.152 572.956H577.429C583.192 572.956 588.707 570.669 592.781 566.594C596.843 562.518 599.129 557.008 599.129 551.256V232.242Z" fill="#383D3F"/>
<path fill-rule="evenodd" clip-rule="evenodd" d="M589.097 253.952C589.097 241.966 579.388 232.25 567.403 232.25H342.182C330.196 232.25 320.476 241.966 320.476 253.952V278.596C320.476 290.582 330.196 300.299 342.182 300.299H567.403C579.388 300.299 589.097 290.582 589.097 278.596V253.952Z" fill="white"/>
<path fill-rule="evenodd" clip-rule="evenodd" d="M381.497 344.774C381.497 338.629 376.517 333.648 370.371 333.648H350.044C343.897 333.648 338.918 338.629 338.918 344.774V365.097C338.918 371.242 343.897 376.222 350.044 376.222H370.371C376.517 376.222 381.497 371.242 381.497 365.097V344.774Z" fill="#393939"/>
<path fill-rule="evenodd" clip-rule="evenodd" d="M381.497 404.999C381.497 398.855 376.517 393.874 370.371 393.874H350.044C343.897 393.874 338.918 398.855 338.918 404.999V425.323C338.918 431.467 343.897 436.448 350.044 436.448H370.371C376.517 436.448 381.497 431.467 381.497 425.323V404.999Z" fill="#393939"/>
<path fill-rule="evenodd" clip-rule="evenodd" d="M381.497 465.228C381.497 459.083 376.517 454.103 370.371 454.103H350.044C343.897 454.103 338.918 459.083 338.918 465.228V485.551C338.918 491.696 343.897 496.676 350.044 496.676H370.371C376.517 496.676 381.497 491.696 381.497 485.551V465.228Z" fill="#393939"/>
<path fill-rule="evenodd" clip-rule="evenodd" d="M381.497 525.456C381.497 519.312 376.517 514.331 370.371 514.331H350.044C343.897 514.331 338.918 519.312 338.918 525.456V545.78C338.918 551.924 343.897 556.905 350.044 556.905H370.371C376.517 556.905 381.497 551.924 381.497 545.78V525.456Z" fill="#393939"/>
<path fill-rule="evenodd" clip-rule="evenodd" d="M447.395 344.774C447.395 338.629 442.416 333.648 436.269 333.648H415.942C409.796 333.648 404.816 338.629 404.816 344.774V365.097C404.816 371.242 409.796 376.222 415.942 376.222H436.269C442.416 376.222 447.395 371.242 447.395 365.097V344.774Z" fill="#393939"/>
<path fill-rule="evenodd" clip-rule="evenodd" d="M447.395 404.999C447.395 398.855 442.416 393.874 436.269 393.874H415.942C409.796 393.874 404.816 398.855 404.816 404.999V425.323C404.816 431.467 409.796 436.448 415.942 436.448H436.269C442.416 436.448 447.395 431.467 447.395 425.323V404.999Z" fill="#393939"/>
<path fill-rule="evenodd" clip-rule="evenodd" d="M447.395 465.228C447.395 459.083 442.416 454.103 436.269 454.103H415.942C409.796 454.103 404.816 459.083 404.816 465.228V485.551C404.816 491.696 409.796 496.676 415.942 496.676H436.269C442.416 496.676 447.395 491.696 447.395 485.551V465.228Z" fill="#393939"/>
<path fill-rule="evenodd" clip-rule="evenodd" d="M447.395 525.456C447.395 519.312 442.416 514.331 436.269 514.331H415.942C409.796 514.331 404.816 519.312 404.816 525.456V545.78C404.816 551.924 409.796 556.905 415.942 556.905H436.269C442.416 556.905 447.395 551.924 447.395 545.78V525.456Z" fill="#393939"/>
<path fill-rule="evenodd" clip-rule="evenodd" d="M513.295 344.774C513.295 338.629 508.315 333.648 502.168 333.648H481.842C475.695 333.648 470.716 338.629 470.716 344.774V365.097C470.716 371.242 475.695 376.222 481.842 376.222H502.168C508.315 376.222 513.295 371.242 513.295 365.097V344.774Z" fill="#393939"/>
<path fill-rule="evenodd" clip-rule="evenodd" d="M513.295 404.999C513.295 398.855 508.315 393.874 502.168 393.874H481.842C475.695 393.874 470.716 398.855 470.716 404.999V425.323C470.716 431.467 475.695 436.448 481.842 436.448H502.168C508.315 436.448 513.295 431.467 513.295 425.323V404.999Z" fill="#393939"/>
<path fill-rule="evenodd" clip-rule="evenodd" d="M513.295 465.228C513.295 459.083 508.315 454.103 502.168 454.103H481.842C475.695 454.103 470.716 459.083 470.716 465.228V485.551C470.716 491.696 475.695 496.676 481.842 496.676H502.168C508.315 496.676 513.295 491.696 513.295 485.551V465.228Z" fill="#393939"/>
<path fill-rule="evenodd" clip-rule="evenodd" d="M513.295 525.456C513.295 519.312 508.315 514.331 502.168 514.331H481.842C475.695 514.331 470.716 519.312 470.716 525.456V545.78C470.716 551.924 475.695 556.905 481.842 556.905H502.168C508.315 556.905 513.295 551.924 513.295 545.78V525.456Z" fill="#393939"/>
<path fill-rule="evenodd" clip-rule="evenodd" d="M579.195 344.774C579.195 338.629 574.215 333.648 568.069 333.648H547.742C541.596 333.648 536.616 338.629 536.616 344.774V365.097C536.616 371.242 541.596 376.222 547.742 376.222H568.069C574.215 376.222 579.195 371.242 579.195 365.097V344.774Z" fill="#393939"/>
<path fill-rule="evenodd" clip-rule="evenodd" d="M579.195 404.999C579.195 398.855 574.215 393.874 568.069 393.874H547.742C541.596 393.874 536.616 398.855 536.616 404.999V425.323C536.616 431.467 541.596 436.448 547.742 436.448H568.069C574.215 436.448 579.195 431.467 579.195 425.323V404.999Z" fill="#393939"/>
<path fill-rule="evenodd" clip-rule="evenodd" d="M579.195 464.804C579.195 458.66 574.215 453.68 568.069 453.68H547.742C541.596 453.68 536.616 458.66 536.616 464.804V545.773C536.616 551.918 541.596 556.898 547.742 556.898H568.069C574.215 556.898 579.195 551.918 579.195 545.773V464.804Z" fill="#393939"/>
<path fill-rule="evenodd" clip-rule="evenodd" d="M377.091 338.323C377.091 332.179 372.111 327.198 365.964 327.198H345.638C339.491 327.198 334.512 332.179 334.512 338.323V358.647C334.512 364.792 339.491 369.772 345.638 369.772H365.964C372.111 369.772 377.091 364.792 377.091 358.647V338.323Z" fill="white"/>
<path fill-rule="evenodd" clip-rule="evenodd" d="M377.091 398.551C377.091 392.406 372.111 387.426 365.964 387.426H345.638C339.491 387.426 334.512 392.406 334.512 398.551V418.875C334.512 425.019 339.491 430 345.638 430H365.964C372.111 430 377.091 425.019 377.091 418.875V398.551Z" fill="white"/>
<path fill-rule="evenodd" clip-rule="evenodd" d="M377.091 458.778C377.091 452.634 372.111 447.653 365.964 447.653H345.638C339.491 447.653 334.512 452.634 334.512 458.778V479.102C334.512 485.247 339.491 490.227 345.638 490.227H365.964C372.111 490.227 377.091 485.247 377.091 479.102V458.778Z" fill="white"/>
<path fill-rule="evenodd" clip-rule="evenodd" d="M377.091 519.006C377.091 512.861 372.111 507.881 365.964 507.881H345.638C339.491 507.881 334.512 512.861 334.512 519.006V539.33C334.512 545.474 339.491 550.455 345.638 550.455H365.964C372.111 550.455 377.091 545.474 377.091 539.33V519.006Z" fill="white"/>
<path fill-rule="evenodd" clip-rule="evenodd" d="M442.99 338.323C442.99 332.179 438.01 327.198 431.864 327.198H411.537C405.391 327.198 400.411 332.179 400.411 338.323V358.647C400.411 364.792 405.391 369.772 411.537 369.772H431.864C438.01 369.772 442.99 364.792 442.99 358.647V338.323Z" fill="white"/>
<path fill-rule="evenodd" clip-rule="evenodd" d="M442.99 398.551C442.99 392.406 438.01 387.426 431.864 387.426H411.537C405.391 387.426 400.411 392.406 400.411 398.551V418.875C400.411 425.019 405.391 430 411.537 430H431.864C438.01 430 442.99 425.019 442.99 418.875V398.551Z" fill="white"/>
<path fill-rule="evenodd" clip-rule="evenodd" d="M442.99 458.778C442.99 452.634 438.01 447.653 431.864 447.653H411.537C405.391 447.653 400.411 452.634 400.411 458.778V479.102C400.411 485.247 405.391 490.227 411.537 490.227H431.864C438.01 490.227 442.99 485.247 442.99 479.102V458.778Z" fill="white"/>
<path fill-rule="evenodd" clip-rule="evenodd" d="M442.99 519.006C442.99 512.861 438.01 507.881 431.864 507.881H411.537C405.391 507.881 400.411 512.861 400.411 519.006V539.33C400.411 545.474 405.391 550.455 411.537 550.455H431.864C438.01 550.455 442.99 545.474 442.99 539.33V519.006Z" fill="white"/>
<path fill-rule="evenodd" clip-rule="evenodd" d="M508.891 338.323C508.891 332.179 503.912 327.198 497.765 327.198H477.439C471.292 327.198 466.312 332.179 466.312 338.323V358.647C466.312 364.792 471.292 369.772 477.439 369.772H497.765C503.912 369.772 508.891 364.792 508.891 358.647V338.323Z" fill="white"/>
<path fill-rule="evenodd" clip-rule="evenodd" d="M508.891 398.551C508.891 392.406 503.912 387.426 497.765 387.426H477.439C471.292 387.426 466.312 392.406 466.312 398.551V418.875C466.312 425.019 471.292 430 477.439 430H497.765C503.912 430 508.891 425.019 508.891 418.875V398.551Z" fill="white"/>
<path fill-rule="evenodd" clip-rule="evenodd" d="M508.891 458.778C508.891 452.634 503.912 447.653 497.765 447.653H477.439C471.292 447.653 466.312 452.634 466.312 458.778V479.102C466.312 485.247 471.292 490.227 477.439 490.227H497.765C503.912 490.227 508.891 485.247 508.891 479.102V458.778Z" fill="white"/>
<path fill-rule="evenodd" clip-rule="evenodd" d="M508.891 519.006C508.891 512.861 503.912 507.881 497.765 507.881H477.439C471.292 507.881 466.312 512.861 466.312 519.006V539.33C466.312 545.474 471.292 550.455 477.439 550.455H497.765C503.912 550.455 508.891 545.474 508.891 539.33V519.006Z" fill="white"/>
<path fill-rule="evenodd" clip-rule="evenodd" d="M574.791 338.323C574.791 332.179 569.811 327.198 563.665 327.198H543.338C537.191 327.198 532.212 332.179 532.212 338.323V358.647C532.212 364.792 537.191 369.772 543.338 369.772H563.665C569.811 369.772 574.791 364.792 574.791 358.647V338.323Z" fill="white"/>
<path fill-rule="evenodd" clip-rule="evenodd" d="M574.791 398.551C574.791 392.406 569.811 387.426 563.665 387.426H543.338C537.191 387.426 532.212 392.406 532.212 398.551V418.875C532.212 425.019 537.191 430 543.338 430H563.665C569.811 430 574.791 425.019 574.791 418.875V398.551Z" fill="white"/>
<path fill-rule="evenodd" clip-rule="evenodd" d="M574.791 458.775C574.791 455.825 573.614 452.995 571.533 450.908C569.442 448.822 566.611 447.65 563.665 447.65H543.338C540.391 447.65 537.561 448.822 535.47 450.908C533.389 452.995 532.212 455.825 532.212 458.775V539.327C532.212 542.276 533.389 545.106 535.47 547.194C537.561 549.279 540.391 550.451 543.338 550.451H563.665C566.611 550.451 569.442 549.279 571.533 547.194C573.614 545.106 574.791 542.276 574.791 539.327V458.775Z" fill="white"/>
<path d="M488.356 269.112C488.356 273.802 487.387 277.389 485.444 279.874C483.501 282.358 480.663 283.601 476.92 283.601C473.221 283.601 470.396 282.381 468.44 279.944C466.484 277.505 465.48 274.011 465.433 269.461V263.218C465.433 258.482 466.415 254.887 468.379 252.434C470.344 249.98 473.178 248.753 476.872 248.753C480.567 248.753 483.392 249.968 485.352 252.398C487.308 254.829 488.308 258.319 488.356 262.869V269.112ZM481.623 262.263C481.623 259.453 481.241 257.407 480.471 256.125C479.702 254.844 478.502 254.204 476.872 254.204C475.286 254.204 474.121 254.813 473.365 256.032C472.613 257.251 472.213 259.157 472.165 261.751V269.997C472.165 272.761 472.543 274.815 473.295 276.158C474.052 277.501 475.256 278.173 476.92 278.173C478.563 278.173 479.754 277.529 480.484 276.24C481.215 274.951 481.593 272.978 481.623 270.323V262.263ZM493.528 279.827C493.528 278.755 493.889 277.886 494.61 277.218C495.332 276.55 496.236 276.216 497.323 276.216C498.427 276.216 499.339 276.55 500.061 277.218C500.782 277.886 501.143 278.755 501.143 279.827C501.143 280.883 500.787 281.741 500.074 282.401C499.357 283.061 498.444 283.391 497.323 283.391C496.223 283.391 495.315 283.061 494.597 282.401C493.885 281.741 493.528 280.883 493.528 279.827ZM529.586 269.112C529.586 273.802 528.617 277.389 526.674 279.874C524.731 282.358 521.893 283.601 518.146 283.601C514.452 283.601 511.627 282.381 509.671 279.944C507.711 277.505 506.711 274.011 506.663 269.461V263.218C506.663 258.482 507.645 254.887 509.61 252.434C511.575 249.98 514.404 248.753 518.103 248.753C521.797 248.753 524.623 249.968 526.583 252.398C528.539 254.829 529.539 258.319 529.586 262.869V269.112ZM522.854 262.263C522.854 259.453 522.471 257.407 521.702 256.125C520.933 254.844 519.733 254.204 518.103 254.204C516.517 254.204 515.347 254.813 514.595 256.032C513.843 257.251 513.444 259.157 513.396 261.751V269.997C513.396 272.761 513.774 274.815 514.526 276.158C515.278 277.501 516.486 278.173 518.146 278.173C519.794 278.173 520.985 277.529 521.711 276.24C522.441 274.951 522.823 272.978 522.854 270.323V262.263ZM554.044 270.37H557.886V275.797H554.044V283.135H547.311V275.797H533.407L533.103 271.558L547.242 249.219H554.044V270.37ZM539.814 270.37H547.311V258.396L546.868 259.165L539.814 270.37Z" fill="#393939"/>
<path fill-rule="evenodd" clip-rule="evenodd" d="M99.2826 474.815C87.5454 452.99 56.8712 474.815 56.8712 474.815C48.5609 502.518 40.6206 528.607 29.6356 557.729C28.1909 563.831 73.1696 556.535 73.289 537.622C73.5278 496.966 104.727 484.942 99.2826 474.815Z" fill="#00FF96"/>
<mask id="mask9_412_8743" style="mask-type:luminance" maskUnits="userSpaceOnUse" x="29" y="465" width="71" height="95">
<path d="M99.2846 474.814C87.5474 452.989 56.8732 474.814 56.8732 474.814C48.5628 502.517 40.6225 528.606 29.6376 557.728C28.1928 563.83 73.1715 556.534 73.2909 537.621C73.5297 496.965 104.729 484.941 99.2846 474.814Z" fill="white"/>
</mask>
<g mask="url(#mask9_412_8743)">
<path fill-rule="evenodd" clip-rule="evenodd" d="M108.93 466.635C89.9719 467.49 68.8452 482.305 62.796 501.421C59.5089 511.785 62.2254 523.546 55.012 532.37C52.5124 535.439 49.1112 537.851 45.3219 538.77C42.9478 539.343 40.528 539.081 38.2225 540.012C33.5087 541.91 29.6509 546.519 27.8475 551.367C27.0828 553.433 26.5464 555.63 26.5807 557.862C26.8089 571.677 42.3542 573.803 52.4781 572.095C73.9471 568.465 91.9578 551.821 104.193 533.827C113.838 519.654 106.818 483.821 108.93 466.635Z" fill="#05DC7B"/>
</g>
<path fill-rule="evenodd" clip-rule="evenodd" d="M191.241 391.754C155.581 422.052 179.607 489.278 179.607 489.278L95.4551 471.867C77.8979 486.19 66.8497 513.744 72.68 545.065C72.68 545.065 168.612 568.785 204.912 556.912C267.753 536.346 276.352 427.272 276.352 427.272C276.352 427.272 207.121 378.267 191.241 391.754Z" fill="#393939"/>
<mask id="mask10_412_8743" style="mask-type:luminance" maskUnits="userSpaceOnUse" x="71" y="389" width="206" height="172">
<path d="M191.242 391.753C155.582 422.051 179.608 489.277 179.608 489.277L95.4561 471.866C77.8988 486.189 66.8507 513.743 72.6809 545.064C72.6809 545.064 168.613 568.784 204.913 556.911C267.754 536.345 276.353 427.271 276.353 427.271C276.353 427.271 207.122 378.266 191.242 391.753Z" fill="white"/>
</mask>
<g mask="url(#mask10_412_8743)">
<path fill-rule="evenodd" clip-rule="evenodd" d="M163.167 419.677C162.88 434.834 163.668 451.629 173.28 464.107C186.343 481.073 216.528 491.055 212.337 517.24C211.847 520.285 210.904 523.222 209.435 525.932C202.641 538.517 186.952 543.401 173.614 544.392C147.621 546.338 115.322 539.962 98.0565 518.53C91.7043 510.649 87.2865 501.168 84.1582 491.592C83.2507 488.81 82.4506 485.944 81.9252 483.055C81.8416 482.601 81.8178 480.189 81.376 479.962C80.4805 479.498 78.6416 482.971 78.379 483.425C75.9551 487.64 74.1044 492.201 72.4925 496.786C66.5104 513.885 64.3134 532.404 71.7642 549.514C87.3581 585.359 133.232 588.595 166.426 581.837C208.384 573.299 254.462 553.335 277.745 515.497C284.336 504.786 288.468 492.81 291.286 480.595C293.447 471.223 294.617 461.774 293.901 452.151C291.68 422.575 275.262 394.163 245.889 384.456C237.28 381.609 228.277 380.498 219.226 380.643C197.471 380.994 175.764 389.237 160.122 404.533C151.549 412.93 163.023 407.387 163.167 419.677Z" fill="black"/>
</g>
<path fill-rule="evenodd" clip-rule="evenodd" d="M238.218 290.17C219.138 283.43 167.676 275.784 152.667 306.017C141.98 327.563 171.138 417.969 171.138 417.969C186.684 426.167 235.949 455.705 251.519 417.878C270.433 371.937 283.854 370.619 284.642 361.752C284.642 361.752 271.555 355.99 267.137 346.455C258.278 327.311 257.287 296.909 238.218 290.17Z" fill="#05DC7B"/>
<mask id="mask11_412_8743" style="mask-type:luminance" maskUnits="userSpaceOnUse" x="150" y="284" width="135" height="153">
<path d="M238.218 290.172C219.138 283.432 167.676 275.786 152.667 306.019C141.98 327.565 171.138 417.971 171.138 417.971C186.684 426.169 235.949 455.707 251.519 417.88C270.433 371.939 283.854 370.621 284.642 361.754C284.642 361.754 271.555 355.992 267.137 346.457C258.278 327.313 257.287 296.911 238.218 290.172Z" fill="white"/>
</mask>
<g mask="url(#mask11_412_8743)">
<path fill-rule="evenodd" clip-rule="evenodd" d="M277.517 409.067C271.105 409.804 263.941 407.488 258.067 405.207C242.831 399.291 231.404 389.422 222.831 375.524C218.055 367.792 213.53 358.928 205.948 353.537C204.324 352.384 198.963 348.87 197.327 351.505C195.607 354.251 196.849 359.575 197.112 362.504C197.96 372.118 198.903 381.727 199.894 391.328C200.463 396.923 201.164 402.505 201.996 408.068C202.616 412.161 203.309 416.243 204.133 420.299C208.216 440.321 216.562 468.493 241.505 468.596C244.622 468.609 247.679 468.096 250.616 467.081C254.95 465.588 258.998 463.135 262.568 460.276C268.037 455.891 273.195 414.548 277.517 409.067Z" fill="#00FF96"/>
</g>
<path fill-rule="evenodd" clip-rule="evenodd" d="M363.014 376.089L247.046 431.306C247.046 431.306 198.577 329.021 172.737 308.287C156.967 295.631 127.178 315.269 139.347 366.905C151.526 418.564 191.579 486.334 228.551 494.146C267.733 502.413 377.103 398.586 377.103 398.586C377.103 398.586 391.614 394.842 392.904 390.921C396.046 381.35 386.366 375.554 386.366 375.554C386.366 375.554 404.402 357.922 402.09 354.838C395.934 346.625 363.014 376.089 363.014 376.089Z" fill="#B5B5B5"/>
<mask id="mask12_412_8743" style="mask-type:luminance" maskUnits="userSpaceOnUse" x="136" y="304" width="267" height="191">
<path d="M363.013 376.084L247.045 431.301C247.045 431.301 198.576 329.016 172.736 308.282C156.966 295.626 127.177 315.264 139.346 366.9C151.525 418.559 191.578 486.329 228.55 494.141C267.732 502.408 377.102 398.581 377.102 398.581C377.102 398.581 391.613 394.837 392.903 390.916C396.045 381.345 386.365 375.549 386.365 375.549C386.365 375.549 404.401 357.917 402.089 354.833C395.933 346.621 363.013 376.084 363.013 376.084Z" fill="white"/>
</mask>
<g mask="url(#mask12_412_8743)">
<path fill-rule="evenodd" clip-rule="evenodd" d="M395.724 377.13C395.485 385.739 386.924 392.517 378.757 392.073C376.393 391.944 374.077 391.343 371.999 390.209C371.629 390.004 368.895 388.134 368.668 388.6C368.178 389.575 369.157 391.522 369.372 392.49C369.945 395.057 370.136 397.503 368.572 399.758C365.91 403.576 361.635 406.08 357.91 408.716C350.96 413.644 343.832 418.309 336.883 423.248C316.286 437.89 295.701 453.746 272.155 463.396C259.069 468.763 244.359 471.965 230.663 466.88C197.135 454.436 185.601 420.178 177.9 388.308C168.109 382.301 147.667 377.108 138.246 385.604C132.205 391.046 131.082 400.259 131.225 407.927C131.667 431.022 143.679 454.55 159.774 470.631C169.613 480.464 181.685 487.461 194.556 492.571C248.191 513.896 311.02 495.329 355.498 461.615C379.856 443.151 394.876 409.305 395.724 377.13ZM396.93 351.855C399.676 355.555 396.13 360.282 393.873 363.162C393.312 363.879 392.727 364.571 392.13 365.256C391.426 366.066 390.709 366.87 389.969 367.653C389.014 368.682 388.023 369.686 386.984 370.647C385.539 371.999 383.987 373.286 382.279 374.299C381.73 374.625 381.169 374.932 380.596 375.205C380.536 375.23 379.665 375.641 379.772 375.729C380.118 375.984 381.288 375.672 381.671 375.634C383.402 375.458 385.205 375.683 386.948 375.544C388.906 375.388 390.841 374.866 392.632 373.957C394.518 373.002 396.035 371.322 397.372 369.73C400.058 366.515 402.327 362.846 403.76 358.892C405.073 355.266 402.542 351.036 396.93 351.855Z" fill="#8C8C8C"/>
<path fill-rule="evenodd" clip-rule="evenodd" d="M136.509 399.59C145.392 391.727 160.879 390.98 171.589 394.098C179.052 396.269 187.195 400.537 195.183 399.677C205.619 398.554 206.216 386.741 214.06 382.17C216.962 380.484 220.341 380.918 223.481 380.087C229.177 378.573 231.445 373.858 232.532 368.497C238.299 339.845 208.986 310.423 180.64 299.276C167.028 293.926 151.183 290.886 140.246 302.997C133.727 310.223 131.303 320.386 130.061 329.777C127.769 347.098 134.276 382.369 136.509 399.59Z" fill="#05DC7B"/>
</g>
<path fill-rule="evenodd" clip-rule="evenodd" d="M392.249 196.836C391.33 190.313 388.703 187.573 388.703 187.573C388.703 187.573 412.595 184.875 418.541 197.389C425.216 211.426 414.1 216.21 404.189 216.21C396.046 216.21 393.431 212.958 392.751 206.291C392.38 206.761 391.963 207.224 391.509 207.673C387.963 211.205 383.509 212.491 381.563 210.54C379.628 208.59 380.93 204.139 384.476 200.606C387.019 198.077 390.028 196.7 392.249 196.836Z" fill="#B5B5B5"/>
<mask id="mask13_412_8743" style="mask-type:luminance" maskUnits="userSpaceOnUse" x="380" y="187" width="41" height="30">
<path d="M392.25 196.837C391.331 190.314 388.704 187.574 388.704 187.574C388.704 187.574 412.596 184.876 418.542 197.39C425.217 211.427 414.101 216.211 404.19 216.211C396.047 216.211 393.432 212.959 392.752 206.292C392.381 206.762 391.964 207.225 391.51 207.674C387.964 211.206 383.51 212.492 381.564 210.541C379.629 208.591 380.931 204.14 384.477 200.607C387.02 198.078 390.029 196.701 392.25 196.837Z" fill="white"/>
</mask>
<g mask="url(#mask13_412_8743)">
<path fill-rule="evenodd" clip-rule="evenodd" d="M421.086 200.603C420.99 201.75 420.549 202.876 420.071 203.91C417.42 209.7 411.39 211.804 405.42 212.18C402.614 212.358 399.45 212.18 397.098 210.457C395.295 209.14 394.244 207.196 393.683 205.075C393.492 204.383 393.361 203.67 393.277 202.958C393.265 202.884 393.205 201.89 393.158 201.893C392.943 201.911 392.716 202.697 392.644 202.85C392.226 203.806 391.749 204.747 391.14 205.603C389.48 207.942 386.555 209.623 383.701 209.882C382.555 209.986 381.313 209.976 380.441 209.125C380.728 216.547 388.322 220.34 394.638 221.704C405.611 224.071 420.429 222.186 424.381 209.851C424.954 208.076 421.157 202.462 421.086 200.603Z" fill="#8C8C8C"/>
</g>
<path fill-rule="evenodd" clip-rule="evenodd" d="M187.458 265.697L163.958 273.767C164.711 280.227 164.2 286.47 161.847 295.146C193.77 318.883 204.597 320.781 192.588 282.977C185.929 277.353 187.617 273.745 187.458 265.697Z" fill="#B5B5B5"/>
<mask id="mask14_412_8743" style="mask-type:luminance" maskUnits="userSpaceOnUse" x="161" y="265" width="37" height="48">
<path d="M187.455 265.696L163.955 273.766C164.708 280.226 164.197 286.469 161.844 295.145C193.767 318.882 204.594 320.78 192.585 282.976C185.926 277.352 187.614 273.744 187.455 265.696Z" fill="white"/>
</mask>
<g mask="url(#mask14_412_8743)">
<path fill-rule="evenodd" clip-rule="evenodd" d="M161.745 277.589C163.761 282.047 168.511 285.668 172.371 288.632C175.297 290.875 178.201 292.641 181.789 293.686C184.862 294.58 188.191 295.066 191.265 294.171C197.7 292.292 200.207 285.306 197.728 279.455C194.088 270.855 182.845 266.593 173.888 266.291C167.654 266.081 164.661 272.222 161.745 277.589Z" fill="#8C8C8C"/>
</g>
<path fill-rule="evenodd" clip-rule="evenodd" d="M176.6 235.473C188.05 235.473 197.352 247.468 197.352 262.241C197.352 277.015 196.85 289.01 185.4 289.01C173.937 289.01 155.848 277.015 155.848 262.241C155.848 247.468 165.149 235.473 176.6 235.473Z" fill="#B5B5B5"/>
<mask id="mask15_412_8743" style="mask-type:luminance" maskUnits="userSpaceOnUse" x="155" y="235" width="43" height="55">
<path d="M176.603 235.478C188.053 235.478 197.355 247.472 197.355 262.246C197.355 277.02 196.853 289.015 185.403 289.015C173.94 289.015 155.851 277.02 155.851 262.246C155.851 247.472 165.152 235.478 176.603 235.478Z" fill="white"/>
</mask>
<g mask="url(#mask15_412_8743)">
<path fill-rule="evenodd" clip-rule="evenodd" d="M204.936 251.387C203.288 254.082 199.861 257.38 196.745 258.045C192.578 258.933 188.232 257.747 184.399 260.126C181.856 261.696 180.542 264.164 179.802 266.961C179.503 268.077 179.276 269.212 178.954 270.323C178.894 270.538 178.656 271.367 178.285 271.075C177.7 270.616 177.617 269.368 177.545 268.714C177.294 266.636 177.294 264.503 177.438 262.42C177.951 255.031 181.581 247.969 189.461 246.657C191.097 246.386 203.3 251.194 204.936 251.387Z" fill="#8C8C8C"/>
</g>
<path fill-rule="evenodd" clip-rule="evenodd" d="M183.273 255.692C185.41 254.012 189.1 255.582 191.906 255.052C197.601 253.977 203.548 252.196 207.237 247.368C210.342 243.31 211.667 237.808 212.049 232.802C212.347 229.009 211.846 224.97 210.079 221.561C207.142 215.894 199.416 212.681 194.067 217.249C190.975 219.896 189.577 224.17 188.503 227.958C187.906 227.298 186.342 227.11 185.53 226.937C182.21 226.227 178.736 226.258 175.393 226.653C172.443 227.002 169.59 227.579 166.891 228.847C157.267 233.365 152.861 243.374 154.067 253.62C153.124 253.434 152.217 255.065 151.835 255.693C150.163 258.457 149.506 261.48 149.614 264.705C149.817 270.667 154.557 275.598 160.133 277.145C163.99 278.212 168.36 277.614 170.258 273.758C170.915 272.42 171.13 270.933 171.285 269.465C168.229 268.003 167.369 263.237 168.085 260.295C168.503 258.628 169.554 256.529 171.572 256.646C173.53 256.76 174.724 258.578 175.333 260.244C176.814 264.297 174.903 268.505 176.157 272.455C176.658 274.001 178.306 275.188 179.202 273.231C179.775 271.96 179.584 270.42 179.452 269.077C179.321 267.763 179.106 266.453 179.034 265.134C178.879 262.539 181.124 257.373 183.273 255.692Z" fill="black"/>
</svg>
