<svg width="912" height="912" viewBox="0 0 912 912" fill="none" xmlns="http://www.w3.org/2000/svg">
<g clip-path="url(#clip0_420_3284)">
<path fill-rule="evenodd" clip-rule="evenodd" d="M546.443 320.087C557.674 320.087 566.786 329.204 566.786 340.435C566.786 351.665 557.674 360.782 546.443 360.782C535.212 360.782 526.091 351.665 526.091 340.435C526.091 329.204 535.212 320.087 546.443 320.087ZM546.443 330.261C552.054 330.261 556.618 334.819 556.618 340.435C556.618 346.05 552.054 350.608 546.443 350.608C540.823 350.608 536.267 346.05 536.267 340.435C536.267 334.819 540.823 330.261 546.443 330.261Z" fill="#EEEEEE"/>
<path fill-rule="evenodd" clip-rule="evenodd" d="M616.764 350.609C627.995 350.609 637.107 359.726 637.107 370.957C637.107 382.188 627.995 391.305 616.764 391.305C605.533 391.305 596.413 382.188 596.413 370.957C596.413 359.726 605.533 350.609 616.764 350.609ZM616.764 360.783C622.375 360.783 626.94 365.342 626.94 370.957C626.94 376.572 622.375 381.131 616.764 381.131C611.144 381.131 606.588 376.572 606.588 370.957C606.588 365.342 611.144 360.783 616.764 360.783Z" fill="#EEEEEE"/>
<path fill-rule="evenodd" clip-rule="evenodd" d="M667.742 268.789C678.973 268.789 688.085 277.906 688.085 289.137C688.085 300.367 678.973 309.484 667.742 309.484C656.511 309.484 647.391 300.367 647.391 289.137C647.391 277.906 656.511 268.789 667.742 268.789ZM667.742 278.963C673.353 278.963 677.918 283.522 677.918 289.137C677.918 294.752 673.353 299.31 667.742 299.31C662.122 299.31 657.566 294.752 657.566 289.137C657.566 283.522 662.122 278.963 667.742 278.963Z" fill="#EEEEEE"/>
<path fill-rule="evenodd" clip-rule="evenodd" d="M719.343 320.087C730.574 320.087 739.686 329.204 739.686 340.435C739.686 351.665 730.574 360.782 719.343 360.782C708.112 360.782 698.992 351.665 698.992 340.435C698.992 329.204 708.112 320.087 719.343 320.087ZM719.343 330.261C724.954 330.261 729.519 334.819 729.519 340.435C729.519 346.05 724.954 350.608 719.343 350.608C713.723 350.608 709.167 346.05 709.167 340.435C709.167 334.819 713.723 330.261 719.343 330.261Z" fill="#EEEEEE"/>
<path fill-rule="evenodd" clip-rule="evenodd" d="M544.916 343.934L615.24 374.456C616.97 375.209 618.996 374.577 619.997 372.973L668.439 295.219L716.653 343.14C717.005 343.509 717.427 343.804 717.895 344.007C718.362 344.211 718.866 344.318 719.376 344.323C719.886 344.329 720.392 344.232 720.864 344.038C721.336 343.844 721.764 343.558 722.123 343.196C722.482 342.834 722.765 342.403 722.955 341.93C723.145 341.457 723.238 340.95 723.229 340.44C723.22 339.93 723.108 339.427 722.901 338.961C722.694 338.495 722.396 338.075 722.024 337.727L670.43 286.43C670.023 286.026 669.531 285.719 668.989 285.531C668.447 285.344 667.87 285.28 667.301 285.345C666.731 285.41 666.183 285.603 665.698 285.91C665.213 286.217 664.804 286.63 664.501 287.117L615.263 366.144L547.955 336.932C547.032 336.562 546.002 336.567 545.082 336.945C544.163 337.323 543.427 338.044 543.032 338.956C542.636 339.868 542.612 340.898 542.964 341.828C543.315 342.757 544.016 343.513 544.916 343.934Z" fill="#EEEEEE"/>
<path fill-rule="evenodd" clip-rule="evenodd" d="M98.8169 679.427C74.9172 639.3 91.2929 643.12 58.2465 606.843C10.1669 554.019 13.1026 480.146 43.9656 433.516C92.7829 359.792 173.998 374.894 265.037 342.606C332.37 318.724 345.972 247.677 383.592 195.524C404.467 166.588 439.047 146.982 474.204 162.41C587.83 212.267 434.179 353.967 500.67 423.794C563.016 489.27 665.15 415.804 728.72 392.437C759.377 381.166 796.628 370.639 824.732 393.316C854.444 417.279 844.132 459.499 828.11 488.184C805.464 528.724 769.94 560.72 752.841 604.66C742.293 631.805 736.834 650.91 739.681 679.427H98.8169Z" fill="#2C2C2C"/>
<path fill-rule="evenodd" clip-rule="evenodd" d="M813.087 437.77C818.397 424.914 810.698 396.309 797.766 396.122C757.988 395.549 679.202 412.423 639.424 411.85C626.492 411.664 611.71 421.937 606.4 434.793C585.35 485.761 525.609 594.975 504.559 645.944C499.249 658.8 515.203 681.124 528.135 681.31L688.005 683.613C700.937 683.799 715.719 673.526 721.028 660.67L813.087 437.77Z" fill="#393939"/>
<path fill-rule="evenodd" clip-rule="evenodd" d="M804.34 417.23C809.649 404.374 803.478 393.799 790.546 393.613L630.676 391.31C617.744 391.124 602.962 401.397 597.653 414.253L505.594 637.152C500.284 650.008 506.456 660.583 519.388 660.77L679.257 663.072C692.189 663.259 706.971 652.985 712.281 640.129L804.34 417.23Z" fill="#171717"/>
<path fill-rule="evenodd" clip-rule="evenodd" d="M779.74 435.742C784.457 424.32 778.982 414.927 767.491 414.762L636.082 412.869C624.608 412.704 611.467 421.829 606.749 433.251L599.903 449.828C595.186 461.249 600.678 470.643 612.153 470.808L743.561 472.701C755.053 472.866 768.176 463.741 772.894 452.319L779.74 435.742Z" fill="white"/>
<path d="M710.64 449.669C708.147 455.124 705.103 459.285 701.518 462.153C697.927 465.021 693.946 466.433 689.574 466.39C685.257 466.347 682.605 464.896 681.615 462.038C680.621 459.18 681.31 455.104 683.673 449.811L686.991 442.55C689.508 437.04 692.567 432.87 696.166 430.038C699.765 427.207 703.723 425.813 708.045 425.856C712.361 425.898 715.016 427.344 716.009 430.194C717.008 433.043 716.321 437.114 713.958 442.408L710.64 449.669ZM706.414 441.625C707.908 438.356 708.549 435.971 708.331 434.473C708.113 432.973 707.052 432.214 705.148 432.195C703.294 432.177 701.604 432.873 700.078 434.282C698.551 435.691 697.071 437.904 695.637 440.92L691.254 450.512C689.784 453.727 689.135 456.12 689.299 457.691C689.464 459.263 690.518 460.058 692.458 460.077C694.383 460.096 696.112 459.36 697.65 457.869C699.188 456.378 700.683 454.089 702.13 451L706.414 441.625ZM710.987 462.192C711.557 460.946 712.441 459.938 713.638 459.17C714.836 458.401 716.07 458.024 717.34 458.036C718.629 458.049 719.518 458.448 720.006 459.233C720.494 460.018 720.454 461.034 719.884 462.28C719.323 463.509 718.45 464.502 717.267 465.262C716.078 466.021 714.831 466.394 713.526 466.382C712.236 466.369 711.35 465.975 710.869 465.198C710.386 464.423 710.426 463.421 710.987 462.192ZM734.72 446.804L746.167 426.776L768.373 426.995L765.389 433.525L749.632 433.37L744.776 441.841C747.099 440.866 749.317 440.389 751.419 440.409C755.192 440.447 757.62 441.641 758.693 443.993C759.771 446.344 759.353 449.615 757.438 453.806C756.274 456.352 754.689 458.627 752.692 460.631C750.69 462.634 748.432 464.182 745.909 465.272C743.385 466.363 740.755 466.895 738.018 466.868C735.621 466.845 733.623 466.339 732.013 465.353C730.403 464.366 729.404 462.991 729.016 461.227C728.629 459.464 728.911 457.461 729.864 455.22L737.648 455.297C737.059 456.943 737.05 458.226 737.623 459.149C738.191 460.07 739.278 460.539 740.872 460.555C742.655 460.573 744.311 459.95 745.858 458.686C747.4 457.421 748.706 455.624 749.77 453.294C750.794 451.054 751.024 449.333 750.462 448.13C749.9 446.926 748.603 446.315 746.572 446.295C744.703 446.276 742.962 446.749 741.359 447.713L740.275 448.41L734.72 446.804Z" fill="#393939"/>
<path fill-rule="evenodd" clip-rule="evenodd" d="M608.595 508.922C611.452 502.007 608.127 496.32 601.183 496.22L592.626 496.096C585.682 495.996 577.727 501.521 574.871 508.437L568.222 524.535C565.366 531.448 568.691 537.136 575.635 537.236L584.192 537.359C591.136 537.459 599.091 531.934 601.946 525.021L608.595 508.922Z" fill="white"/>
<path fill-rule="evenodd" clip-rule="evenodd" d="M585.688 564.353C588.544 557.437 585.219 551.75 578.276 551.65L569.718 551.527C562.775 551.427 554.819 556.952 551.963 563.867L545.314 579.966C542.459 586.879 545.784 592.566 552.727 592.666L561.285 592.79C568.229 592.89 576.184 587.365 579.039 580.452L585.688 564.353Z" fill="white"/>
<path fill-rule="evenodd" clip-rule="evenodd" d="M562.816 619.795C565.672 612.88 562.347 607.193 555.404 607.093L546.846 606.969C539.902 606.869 531.947 612.394 529.091 619.31L522.442 635.408C519.587 642.322 522.912 648.009 529.855 648.109L538.413 648.232C545.356 648.332 553.312 642.807 556.167 635.894L562.816 619.795Z" fill="white"/>
<path fill-rule="evenodd" clip-rule="evenodd" d="M660.012 509.659C662.869 502.743 659.544 497.056 652.6 496.956L644.043 496.833C637.099 496.733 629.144 502.257 626.288 509.173L619.639 525.272C616.783 532.185 620.108 537.872 627.052 537.972L635.609 538.095C642.553 538.195 650.508 532.671 653.363 525.757L660.012 509.659Z" fill="white"/>
<path fill-rule="evenodd" clip-rule="evenodd" d="M637.104 565.093C639.96 558.178 636.635 552.49 629.692 552.39L621.134 552.267C614.191 552.167 606.235 557.692 603.379 564.607L596.73 580.706C593.875 587.619 597.2 593.307 604.143 593.407L612.701 593.53C619.645 593.63 627.6 588.105 630.455 581.192L637.104 565.093Z" fill="white"/>
<path fill-rule="evenodd" clip-rule="evenodd" d="M614.232 620.532C617.088 613.616 613.763 607.929 606.82 607.829L598.262 607.706C591.319 607.606 583.363 613.13 580.507 620.046L573.858 636.145C571.003 643.058 574.328 648.745 581.271 648.845L589.829 648.968C596.773 649.068 604.728 643.544 607.583 636.631L614.232 620.532Z" fill="white"/>
<path fill-rule="evenodd" clip-rule="evenodd" d="M711.428 510.4C714.285 503.484 710.96 497.797 704.016 497.697L695.459 497.574C688.515 497.474 680.56 502.999 677.704 509.914L671.055 526.013C668.199 532.926 671.524 538.613 678.468 538.713L687.025 538.837C693.969 538.937 701.924 533.412 704.78 526.499L711.428 510.4Z" fill="white"/>
<path fill-rule="evenodd" clip-rule="evenodd" d="M753.748 511.014C756.604 504.099 753.279 498.411 746.336 498.311L737.778 498.188C730.835 498.088 722.88 503.613 720.023 510.528L713.374 526.627C710.519 533.54 713.844 539.228 720.788 539.328L729.345 539.451C736.289 539.551 744.244 534.026 747.099 527.113L753.748 511.014Z" fill="white"/>
<path fill-rule="evenodd" clip-rule="evenodd" d="M688.556 565.836C691.413 558.921 688.088 553.234 681.144 553.134L672.587 553.01C665.643 552.91 657.688 558.435 654.831 565.351L648.183 581.449C645.327 588.363 648.652 594.05 655.596 594.15L664.153 594.273C671.097 594.373 679.052 588.848 681.907 581.935L688.556 565.836Z" fill="white"/>
<path fill-rule="evenodd" clip-rule="evenodd" d="M665.649 621.271C668.505 614.355 665.18 608.668 658.237 608.568L649.679 608.445C642.735 608.345 634.78 613.87 631.924 620.785L625.275 636.884C622.42 643.797 625.745 649.484 632.688 649.584L641.246 649.708C648.189 649.808 656.145 644.283 659 637.37L665.649 621.271Z" fill="white"/>
<path fill-rule="evenodd" clip-rule="evenodd" d="M727.576 566.384C730.431 559.473 727.115 553.783 720.149 553.683L718.141 553.654C711.175 553.554 703.226 559.081 700.372 565.992L670.826 637.529C667.97 644.446 671.288 650.13 678.254 650.23L680.262 650.259C687.228 650.36 695.174 644.838 698.031 637.921L727.576 566.384Z" fill="white"/>
<path fill-rule="evenodd" clip-rule="evenodd" d="M347.699 673.856H532.746V682.056H347.699V673.856Z" fill="#383D3F"/>
<path fill-rule="evenodd" clip-rule="evenodd" d="M347.699 657.457H532.746V665.657H347.699V657.457Z" fill="#383D3F"/>
<path fill-rule="evenodd" clip-rule="evenodd" d="M347.699 641.058H532.746V649.257H347.699V641.058Z" fill="#383D3F"/>
<path fill-rule="evenodd" clip-rule="evenodd" d="M347.699 624.658H532.746V632.858H347.699V624.658Z" fill="#383D3F"/>
<path fill-rule="evenodd" clip-rule="evenodd" d="M347.699 608.259H532.746V616.458H347.699V608.259Z" fill="#383D3F"/>
<path fill-rule="evenodd" clip-rule="evenodd" d="M347.699 591.858H532.746V600.058H347.699V591.858Z" fill="#383D3F"/>
<path fill-rule="evenodd" clip-rule="evenodd" d="M347.699 665.657H532.746V673.857H347.699V665.657Z" fill="#00FF96"/>
<path fill-rule="evenodd" clip-rule="evenodd" d="M347.699 649.257H532.746V657.456H347.699V649.257Z" fill="#00FF96"/>
<path fill-rule="evenodd" clip-rule="evenodd" d="M347.699 632.857H532.746V641.057H347.699V632.857Z" fill="#00FF96"/>
<path fill-rule="evenodd" clip-rule="evenodd" d="M347.699 616.458H532.746V624.657H347.699V616.458Z" fill="#00FF96"/>
<path fill-rule="evenodd" clip-rule="evenodd" d="M347.699 600.06H532.746V608.259H347.699V600.06Z" fill="#00FF96"/>
<path fill-rule="evenodd" clip-rule="evenodd" d="M347.699 583.66H532.746V591.86H347.699V583.66Z" fill="#00FF96"/>
<path fill-rule="evenodd" clip-rule="evenodd" d="M532.746 673.856H617.997V682.056H532.746V673.856Z" fill="#393939"/>
<path fill-rule="evenodd" clip-rule="evenodd" d="M532.746 657.457H617.997V665.657H532.746V657.457Z" fill="#393939"/>
<path fill-rule="evenodd" clip-rule="evenodd" d="M532.746 641.058H617.997V649.257H532.746V641.058Z" fill="#393939"/>
<path fill-rule="evenodd" clip-rule="evenodd" d="M532.746 624.658H617.997V632.858H532.746V624.658Z" fill="#393939"/>
<path fill-rule="evenodd" clip-rule="evenodd" d="M532.746 608.259H617.997V616.458H532.746V608.259Z" fill="#393939"/>
<path fill-rule="evenodd" clip-rule="evenodd" d="M532.746 591.858H617.997V600.058H532.746V591.858Z" fill="#393939"/>
<path fill-rule="evenodd" clip-rule="evenodd" d="M532.746 665.657H617.997V673.857H532.746V665.657Z" fill="#8C8C8C"/>
<path fill-rule="evenodd" clip-rule="evenodd" d="M532.746 649.257H617.997V657.456H532.746V649.257Z" fill="#8C8C8C"/>
<path fill-rule="evenodd" clip-rule="evenodd" d="M532.746 632.857H617.997V641.057H532.746V632.857Z" fill="#8C8C8C"/>
<path fill-rule="evenodd" clip-rule="evenodd" d="M532.746 616.458H617.997V624.657H532.746V616.458Z" fill="#8C8C8C"/>
<path fill-rule="evenodd" clip-rule="evenodd" d="M532.746 600.06H617.997V608.259H532.746V600.06Z" fill="#8C8C8C"/>
<path fill-rule="evenodd" clip-rule="evenodd" d="M532.746 583.66H617.997V591.86H532.746V583.66Z" fill="#8C8C8C"/>
<path fill-rule="evenodd" clip-rule="evenodd" d="M438.069 581.354C437.298 571.379 433.969 561.449 430.813 552.027C422.395 526.946 410.269 504.423 388.779 488.249C378.339 480.395 364.177 473.039 350.641 474.894C344.229 475.771 337.075 479.473 337.395 486.884C337.947 500.134 353.839 510.486 363.552 516.928C387.281 532.674 431.337 549.73 438.069 581.354Z" fill="#383D3F"/>
<mask id="mask0_420_3284" style="mask-type:luminance" maskUnits="userSpaceOnUse" x="337" y="474" width="102" height="108">
<path d="M438.068 581.352C437.298 571.378 433.968 561.447 430.813 552.025C422.394 526.944 410.268 504.421 388.778 488.247C378.339 480.393 364.177 473.037 350.64 474.892C344.228 475.769 337.075 479.471 337.394 486.882C337.947 500.132 353.839 510.485 363.552 516.926C387.281 532.672 431.336 549.728 438.068 581.352Z" fill="white"/>
</mask>
<g mask="url(#mask0_420_3284)">
<path fill-rule="evenodd" clip-rule="evenodd" d="M343.219 468.077C341.403 472.605 342.171 477.968 343.115 482.597C343.953 486.772 345.124 491.017 347.272 494.721C355.063 508.102 371.449 513.727 385.949 515.928C392.5 516.924 402.999 517.588 408.135 512.208C411.663 508.504 409.113 504.94 408.903 500.783C408.851 499.682 409.724 499.42 410.65 499.7C415.664 501.167 419.961 508.312 422.651 512.277C430.722 524.244 435.875 538.725 438.007 552.963C438.758 557.976 439.876 564.982 436.644 569.419C432.591 574.991 423.367 570.729 418.668 568.528C417.306 567.881 415.943 567.2 414.598 566.501C413.043 565.698 411.488 564.859 409.969 564.021C407.575 562.71 405.234 561.313 402.911 559.915C388.709 551.425 320.842 516.155 311.897 499.473C302.569 482.056 327.096 473.985 343.219 468.077Z" fill="#1A1A1B"/>
</g>
<path fill-rule="evenodd" clip-rule="evenodd" d="M445.366 581.354C446.136 571.379 449.466 561.449 452.621 552.027C461.04 526.946 473.166 504.423 494.656 488.249C505.095 480.395 519.257 473.039 532.794 474.894C539.206 475.771 546.36 479.473 546.04 486.884C545.487 500.134 529.595 510.486 519.882 516.928C496.153 532.674 452.098 549.73 445.366 581.354Z" fill="#383D3F"/>
<mask id="mask1_420_3284" style="mask-type:luminance" maskUnits="userSpaceOnUse" x="445" y="474" width="102" height="108">
<path d="M445.367 581.352C446.137 571.378 449.467 561.447 452.622 552.025C461.041 526.944 473.167 504.421 494.657 488.247C505.096 480.393 519.258 473.037 532.795 474.892C539.207 475.769 546.361 479.471 546.041 486.882C545.488 500.132 529.596 510.485 519.883 516.926C496.154 532.672 452.099 549.728 445.367 581.352Z" fill="white"/>
</mask>
<g mask="url(#mask1_420_3284)">
<path fill-rule="evenodd" clip-rule="evenodd" d="M540.216 468.077C542.033 472.605 541.264 477.968 540.321 482.597C539.482 486.772 538.312 491.017 536.163 494.721C528.372 508.102 511.986 513.727 497.487 515.928C490.936 516.924 480.437 517.588 475.301 512.208C471.772 508.504 474.323 504.94 474.532 500.783C474.585 499.682 473.711 499.42 472.786 499.7C467.772 501.167 463.475 508.312 460.784 512.277C452.714 524.244 447.56 538.725 445.429 552.963C444.678 557.976 443.56 564.982 446.792 569.419C450.844 574.991 460.068 570.729 464.767 568.528C466.13 567.881 467.492 567.2 468.838 566.501C470.392 565.698 471.947 564.859 473.467 564.021C475.86 562.71 478.201 561.313 480.524 559.915C494.727 551.425 562.594 516.155 571.538 499.473C580.867 482.056 556.34 473.985 540.216 468.077Z" fill="#1A1A1B"/>
</g>
<path fill-rule="evenodd" clip-rule="evenodd" d="M434.895 576.423C435.396 557.638 436.573 537.427 434.412 518.042C432.349 499.689 427.295 482.067 415.201 467.43C402.105 451.556 383.434 441.599 366.711 430.02C348.098 417.122 331.799 402.359 325.531 378.017C323.621 370.68 322.907 363.052 323.64 355.508C324.431 347.465 327.093 339.709 330.661 332.457C332.378 328.963 336.621 327.528 340.113 329.25C343.604 330.973 345.05 335.209 343.314 338.701C340.498 344.432 338.319 350.538 337.682 356.896C337.104 362.795 337.702 368.755 339.187 374.491C344.549 395.228 358.88 407.431 374.754 418.419C392.518 430.726 412.173 441.574 426.099 458.441C453.16 491.244 450.074 536.977 449.013 576.798C448.898 580.702 445.657 583.779 441.761 583.667C437.865 583.573 434.798 580.326 434.895 576.423Z" fill="#383D3F"/>
<mask id="mask2_420_3284" style="mask-type:luminance" maskUnits="userSpaceOnUse" x="323" y="328" width="127" height="256">
<path d="M434.895 576.421C435.396 557.636 436.573 537.425 434.412 518.04C432.349 499.687 427.295 482.065 415.201 467.428C402.105 451.554 383.434 441.597 366.711 430.018C348.098 417.12 331.799 402.357 325.531 378.016C323.621 370.678 322.907 363.05 323.64 355.506C324.431 347.463 327.093 339.707 330.661 332.455C332.378 328.961 336.621 327.526 340.113 329.248C343.604 330.971 345.05 335.207 343.314 338.699C340.498 344.43 338.319 350.536 337.682 356.894C337.104 362.793 337.702 368.753 339.187 374.489C344.549 395.226 358.88 407.429 374.754 418.417C392.518 430.724 412.173 441.572 426.099 458.439C453.16 491.242 450.074 536.975 449.013 576.796C448.898 580.7 445.657 583.777 441.761 583.665C437.865 583.571 434.798 580.324 434.895 576.421Z" fill="white"/>
</mask>
<g mask="url(#mask2_420_3284)">
<path fill-rule="evenodd" clip-rule="evenodd" d="M361.788 319.265C351.078 328.035 346.969 381.963 339.233 393.239C337.399 395.938 334.575 406.499 330.884 407.103C328.031 407.565 325.588 403.42 324.377 401.495C320.064 394.688 317.685 386.424 315.622 378.722C310.255 358.856 307.297 334.926 313.332 314.909C314.34 311.528 315.705 308.121 317.604 305.135C325.941 292.113 341.143 298.666 350.282 306.824C354.501 310.602 358.238 314.849 361.788 319.265Z" fill="#1A1A1B"/>
</g>
<path d="M350.602 373.307C314.02 373.307 284.363 343.651 284.363 307.068C284.363 270.485 314.02 240.829 350.602 240.829C387.185 240.829 416.841 270.485 416.841 307.068C416.841 343.651 387.185 373.307 350.602 373.307Z" fill="#00FF96"/>
<mask id="mask3_420_3284" style="mask-type:luminance" maskUnits="userSpaceOnUse" x="284" y="240" width="133" height="134">
<path d="M350.604 373.308C314.021 373.308 284.365 343.652 284.365 307.069C284.365 270.486 314.021 240.83 350.604 240.83C387.187 240.83 416.843 270.486 416.843 307.069C416.843 343.652 387.187 373.308 350.604 373.308Z" fill="white"/>
</mask>
<g mask="url(#mask3_420_3284)">
<path fill-rule="evenodd" clip-rule="evenodd" d="M296.604 255.169C290.001 287.766 292.115 327.159 321.882 347.93C327.571 351.873 333.779 355.007 340.33 357.241C356.786 362.866 376.526 362.779 392.318 355.127C396.965 352.891 401.385 350.044 405.14 346.498C407.499 344.279 409.84 340.576 412.774 339.126C415.692 337.676 416.495 341.379 416.321 343.476C415.692 351.372 410.346 359.198 405.542 365.137C387.06 388.004 356.541 394.713 328.975 385.803C281.441 370.448 256.565 298.562 296.604 255.169Z" fill="#00CC70"/>
</g>
<path fill-rule="evenodd" clip-rule="evenodd" d="M465.208 198.922L470.902 224.756L448.006 238.026L473.848 232.324L487.116 255.21L481.423 229.376L504.296 216.117L478.477 221.807L465.208 198.922Z" fill="#00FF96"/>
<path fill-rule="evenodd" clip-rule="evenodd" d="M411.881 222.179L415.224 237.345L401.782 245.136L416.953 241.789L424.743 255.224L421.4 240.058L434.829 232.274L419.671 235.614L411.881 222.179Z" fill="#00FF96"/>
<path fill-rule="evenodd" clip-rule="evenodd" d="M444.928 259.363L448.271 274.53L434.829 282.321L450 278.973L457.79 292.409L454.447 277.242L467.876 269.458L452.718 272.799L444.928 259.363Z" fill="#00FF96"/>
<path d="M363.885 316.166C362.663 314.05 361.104 312.702 359.204 312.131C357.31 311.554 354.648 311.55 351.218 312.119C347.796 312.683 344.76 313.033 342.119 313.164C339.47 313.299 337.028 313.108 334.785 312.595C332.559 312.086 330.461 311.127 328.62 309.777C326.745 308.416 325.08 306.468 323.619 303.937C321.1 299.573 320.43 295.192 321.61 290.793C322.789 286.393 325.55 282.631 329.907 279.495L325.122 271.208L331.315 267.632L336.167 276.036C341.115 274.04 345.791 273.879 350.198 275.553C354.604 277.226 358.264 280.579 361.171 285.613L349.977 292.077C348.187 288.978 346.207 287.032 344.048 286.23C341.881 285.432 339.725 285.653 337.586 286.888C335.469 288.11 334.175 289.658 333.704 291.53C333.234 293.403 333.614 295.395 334.836 297.513C335.969 299.475 337.442 300.725 339.27 301.253C341.09 301.786 343.901 301.781 347.702 301.239C351.504 300.697 354.715 300.401 357.336 300.35C359.957 300.3 362.349 300.571 364.52 301.16C366.648 301.734 368.641 302.725 370.384 304.074C372.128 305.426 373.678 307.277 375.035 309.626C377.569 314.016 378.253 318.372 377.102 322.686C375.943 327.004 373.102 330.796 368.587 334.057L373.037 341.764L366.879 345.319L362.452 337.65C356.826 340.14 351.644 340.628 346.898 339.117C342.152 337.605 338.251 334.203 335.195 328.91L346.389 322.447C348.163 325.519 350.253 327.454 352.66 328.25C355.066 329.047 357.635 328.657 360.374 327.076C362.643 325.765 364.089 324.131 364.718 322.166C365.341 320.207 365.063 318.207 363.885 316.166Z" fill="white"/>
<path fill-rule="evenodd" clip-rule="evenodd" d="M442.603 509.71C433.406 520.14 428.807 509.102 438.715 496.751C448.106 485.069 443.352 480.7 444.852 465.362C446.49 448.739 441.532 432.294 438.623 416.043C435.39 397.949 434.556 380.119 444.975 362.578C448.104 357.279 452.086 352.502 456.846 348.605C461.927 344.456 467.914 341.548 474.13 339.451C477.123 338.438 480.378 340.059 481.385 343.054C482.392 346.049 480.783 349.306 477.78 350.306C472.87 351.966 468.108 354.207 464.085 357.481C460.36 360.524 457.272 364.28 454.821 368.418C445.958 383.374 447.139 398.606 449.903 414.031C452.99 431.298 457.998 448.819 456.263 466.488C454.271 486.688 455.726 494.824 442.603 509.71Z" fill="#383D3F"/>
<mask id="mask4_420_3284" style="mask-type:luminance" maskUnits="userSpaceOnUse" x="433" y="339" width="49" height="175">
<path d="M442.604 509.711C433.407 520.141 428.808 509.103 438.716 496.752C448.107 485.07 443.353 480.701 444.853 465.363C446.491 448.74 441.533 432.295 438.624 416.044C435.391 397.95 434.557 380.12 444.976 362.579C448.105 357.28 452.087 352.503 456.847 348.606C461.928 344.457 467.915 341.549 474.131 339.452C477.124 338.439 480.379 340.06 481.386 343.055C482.393 346.05 480.784 349.307 477.781 350.307C472.871 351.967 468.109 354.208 464.086 357.482C460.361 360.525 457.273 364.281 454.822 368.419C445.959 383.375 447.14 398.607 449.904 414.032C452.991 431.299 457.999 448.82 456.264 466.488C454.272 486.689 455.727 494.825 442.604 509.711Z" fill="white"/>
</mask>
<g mask="url(#mask4_420_3284)">
<path fill-rule="evenodd" clip-rule="evenodd" d="M499.539 349.812C488.362 348.669 454.976 377.175 444.06 379.178C441.456 379.667 433.763 384.087 431.302 382.309C429.403 380.932 430.39 377.153 430.805 375.355C432.253 368.976 435.646 362.877 438.898 357.281C447.257 342.82 459.335 327.42 474.309 319.435C476.831 318.079 479.573 316.914 482.379 316.298C494.644 313.641 499.575 326.141 500.112 336.069C500.353 340.66 500.049 345.241 499.539 349.812Z" fill="#1A1A1B"/>
</g>
<path d="M462.036 374.306C441.095 353.254 441.184 319.212 462.236 298.271C483.288 277.33 517.33 277.42 538.271 298.471C559.212 319.523 559.122 353.565 538.07 374.506C517.019 395.447 482.977 395.357 462.036 374.306Z" fill="#00FF96"/>
<mask id="mask5_420_3284" style="mask-type:luminance" maskUnits="userSpaceOnUse" x="446" y="282" width="108" height="109">
<path d="M462.035 374.303C441.094 353.251 441.184 319.209 462.236 298.268C483.287 277.327 517.329 277.417 538.27 298.468C559.212 319.52 559.122 353.562 538.07 374.503C517.018 395.444 482.976 395.354 462.035 374.303Z" fill="white"/>
</mask>
<g mask="url(#mask5_420_3284)">
<path fill-rule="evenodd" clip-rule="evenodd" d="M499.107 275.606C476.569 290.466 455.11 314.232 460.197 343.252C461.184 348.782 462.935 354.149 465.399 359.198C471.582 371.887 482.932 383.197 496.375 387.904C500.322 389.298 504.49 390.212 508.681 390.343C511.308 390.43 514.779 389.657 517.293 390.516C519.798 391.365 518.126 393.948 516.82 395.047C511.916 399.205 504.353 400.609 498.185 401.244C474.446 403.698 453.116 389.976 442.463 369.013C424.09 332.87 451.217 277.405 499.107 275.606Z" fill="#00CC70"/>
</g>
<path d="M502.52 349.243C503.039 347.328 502.922 345.66 502.163 344.239C501.411 342.819 499.889 341.285 497.599 339.637C495.315 337.99 493.376 336.443 491.788 334.998C490.194 333.551 488.906 332.037 487.918 330.453C486.936 328.88 486.287 327.124 486.01 325.292C485.72 323.433 485.889 321.361 486.509 319.071C487.577 315.123 489.715 312.23 492.922 310.391C496.129 308.551 499.874 307.986 504.173 308.698L506.203 301.201L511.806 302.718L509.747 310.321C513.728 312.025 516.497 314.624 518.057 318.118C519.616 321.611 519.782 325.636 518.548 330.191L508.421 327.449C509.18 324.646 509.166 322.392 508.392 320.691C507.611 318.987 506.25 317.873 504.314 317.349C502.399 316.83 500.768 316.972 499.421 317.772C498.074 318.574 497.145 319.933 496.626 321.848C496.146 323.623 496.27 325.187 497.012 326.541C497.747 327.893 499.359 329.508 501.847 331.385C504.335 333.262 506.344 334.941 507.873 336.42C509.402 337.9 510.615 339.431 511.519 341.018C512.407 342.571 512.978 344.285 513.199 346.061C513.419 347.838 513.242 349.789 512.666 351.915C511.591 355.886 509.476 358.773 506.334 360.58C503.186 362.385 499.378 362.921 494.916 362.189L493.028 369.162L487.458 367.654L489.337 360.716C484.684 358.904 481.437 356.201 479.59 352.605C477.743 349.008 477.467 344.816 478.764 340.028L488.891 342.77C488.139 345.549 488.222 347.859 489.141 349.7C490.06 351.541 491.755 352.796 494.233 353.467C496.286 354.023 498.054 353.919 499.545 353.157C501.029 352.393 502.02 351.088 502.52 349.243Z" fill="white"/>
<path fill-rule="evenodd" clip-rule="evenodd" d="M460.559 593.521C471.849 585.796 362.21 531.34 346.05 540.188C292.105 569.742 252.475 608.78 222.819 654.403L348.656 682.066C376.385 638.901 422.356 604.245 460.559 593.521Z" fill="#8C8C8C"/>
<path fill-rule="evenodd" clip-rule="evenodd" d="M431.524 561.137C441.144 550.458 315.721 521.935 301.404 534.963C253.614 578.473 222.788 628.132 203.773 682.052H347.498C365.152 631.131 395.158 581.528 431.524 561.137Z" fill="black"/>
<path fill-rule="evenodd" clip-rule="evenodd" d="M263.645 602.954C252.438 622.89 259.526 648.17 279.461 659.375C299.396 670.581 324.677 663.497 335.884 643.561C343.918 629.268 342.551 612.231 333.789 599.602C330.331 594.608 325.712 590.312 320.066 587.139C300.131 575.933 274.851 583.017 263.645 602.954ZM267.402 605.066C277.443 587.205 300.095 580.854 317.956 590.893C335.816 600.933 342.165 623.586 332.125 641.448C322.085 659.309 299.437 665.652 281.576 655.613C263.716 645.573 257.362 622.928 267.402 605.066Z" fill="white"/>
<path d="M313.952 623.071C312.294 622.14 310.718 621.857 309.219 622.228C307.724 622.593 305.942 623.646 303.873 625.386C301.807 627.121 299.916 628.559 298.2 629.694C296.482 630.835 294.772 631.676 293.072 632.216C291.381 632.763 289.596 632.955 287.827 632.782C286.032 632.614 284.147 631.971 282.166 630.858C278.75 628.938 276.564 626.272 275.609 622.862C274.654 619.451 275.008 615.839 276.68 612.014L270.192 608.367L272.917 603.519L279.496 607.217C282.014 603.92 285.079 601.958 288.69 601.33C292.301 600.702 296.079 601.493 300.02 603.709L295.094 612.471C292.669 611.108 290.575 610.586 288.81 610.911C287.044 611.237 285.689 612.239 284.748 613.914C283.816 615.571 283.564 617.12 283.993 618.559C284.42 619.998 285.464 621.18 287.122 622.112C288.658 622.976 290.142 623.222 291.571 622.856C293 622.491 294.878 621.373 297.206 619.502C299.534 617.632 301.565 616.161 303.298 615.088C305.032 614.015 306.74 613.248 308.425 612.781C310.077 612.321 311.803 612.193 313.504 612.405C315.207 612.618 316.977 613.241 318.816 614.274C322.252 616.206 324.438 618.849 325.378 622.191C326.315 625.54 325.918 629.203 324.191 633.175L330.224 636.566L327.515 641.386L321.512 638.012C318.737 641.908 315.463 644.289 311.689 645.16C307.915 646.031 303.956 645.302 299.812 642.973L304.738 634.211C307.143 635.563 309.309 636.028 311.234 635.606C313.16 635.185 314.724 633.906 315.929 631.762C316.928 629.985 317.25 628.312 316.889 626.755C316.527 625.197 315.548 623.969 313.952 623.071Z" fill="white"/>
<path fill-rule="evenodd" clip-rule="evenodd" d="M397.933 554.44C397.846 554.959 397.641 555.186 397.415 555.575C396.961 556.379 396.389 557.619 396.151 561.044C396.054 562.333 396.594 563.845 397.479 565.322C398.667 567.297 400.729 569.606 401.723 570.683C401.507 570.922 401.237 571.208 400.945 571.518C392.275 580.692 349.981 625.335 338.579 679.786C338.439 680.488 338.882 681.168 339.583 681.319C340.285 681.46 340.966 681.017 341.117 680.315C352.378 626.479 394.251 582.364 402.824 573.293C403.623 572.448 404.141 571.891 404.346 571.645C404.462 571.508 404.556 571.355 404.627 571.191C404.713 570.988 404.865 570.457 404.433 569.823C403.979 569.167 401.28 566.611 399.704 563.989C399.12 563.024 398.667 562.069 398.721 561.228C398.958 557.938 399.488 557.147 399.887 556.48C400.287 555.816 400.6 555.234 400.556 553.666C400.546 553.36 400.449 552.922 399.963 552.548C399.671 552.331 398.861 551.985 397.555 551.627C388.064 549.016 348.103 542.275 329.488 540.151C324.672 539.601 321.239 539.38 320.019 539.568C316.423 540.126 315.408 541.75 314.501 543.566C313.864 544.837 313.357 546.284 311.154 547.223C310.387 547.552 309.383 547.66 308.282 547.708C306.371 547.792 304.168 547.66 302.106 547.775C299.482 547.923 297.085 548.514 295.562 550.097C269.422 577.298 239.459 611.082 216.601 671.289C215.327 674.658 214.916 674.377 213.686 677.918C213.448 678.588 213.804 679.333 214.474 679.559C214.797 679.674 215.153 679.655 215.463 679.507C215.772 679.359 216.011 679.095 216.126 678.771C217.346 675.262 217.756 675.543 219.019 672.206C241.705 612.432 271.484 578.895 297.43 551.889C298.078 551.212 298.985 550.854 300 550.634C301.209 550.375 302.559 550.319 303.92 550.31C307.029 550.291 310.182 550.449 312.169 549.601C314.62 548.554 315.602 547.098 316.358 545.649C317.136 544.135 317.492 542.577 320.418 542.123C321.94 541.887 327.166 542.42 334.228 543.337C351.115 545.529 378.26 550.061 391.389 552.839C394.283 553.453 396.497 553.977 397.728 554.371C397.792 554.393 397.868 554.416 397.933 554.44Z" fill="white"/>
<path d="M263.483 450.447C231.493 463.096 196.845 451.309 186.095 424.121C175.345 396.933 192.564 364.639 224.554 351.99C256.545 339.342 291.193 351.128 301.943 378.316C312.692 405.504 295.474 437.799 263.483 450.447Z" fill="#EBEBEB"/>
<mask id="mask6_420_3284" style="mask-type:luminance" maskUnits="userSpaceOnUse" x="182" y="346" width="124" height="110">
<path d="M263.485 450.449C231.495 463.098 196.847 451.311 186.097 424.123C175.347 396.935 192.566 364.641 224.556 351.992C256.546 339.344 291.194 351.13 301.944 378.318C312.694 405.506 295.475 437.801 263.485 450.449Z" fill="white"/>
</mask>
<g mask="url(#mask6_420_3284)">
<path fill-rule="evenodd" clip-rule="evenodd" d="M331.632 380.538C333.548 388.067 284.373 357.114 284.373 357.114C284.373 357.114 291.214 382.089 284.378 398.566C272.975 426.02 237.116 442.745 220.735 443.055C212.38 443.212 204.314 440.711 196.64 437.637C193.166 436.246 187.764 432.582 183.929 434.231C176.076 437.614 181.009 451.602 183.571 456.544C184.363 458.081 185.266 459.557 186.273 460.963C210.243 494.27 283.009 468.756 311.259 441.473C327.46 425.827 334.896 402.689 331.632 380.538Z" fill="white"/>
</g>
<path fill-rule="evenodd" clip-rule="evenodd" d="M166.969 410.398C161.484 417.911 178.527 427.452 75.8861 457.832C-10.1471 483.299 104.985 681.92 104.985 681.92L257.977 681.919C292.483 641.674 240.682 573.513 182.899 549.489C128.208 526.747 239.615 470.109 244.02 464.157C258.321 444.877 208.437 451.844 189.662 419.948C176.265 397.179 189.637 392.928 182.902 391.301C174.359 389.238 173.241 401.808 166.969 410.398Z" fill="#05DC7B"/>
<mask id="mask7_420_3284" style="mask-type:luminance" maskUnits="userSpaceOnUse" x="43" y="391" width="227" height="291">
<path d="M166.967 410.396C161.482 417.909 178.525 427.45 75.8842 457.83C-10.149 483.297 104.983 681.918 104.983 681.918L257.976 681.917C292.481 641.672 240.68 573.511 182.897 549.487C128.206 526.745 239.613 470.107 244.018 464.155C258.319 444.875 208.435 451.842 189.66 419.946C176.264 397.177 189.635 392.926 182.9 391.299C174.357 389.236 173.239 401.806 166.967 410.396Z" fill="white"/>
</mask>
<g mask="url(#mask7_420_3284)">
<path fill-rule="evenodd" clip-rule="evenodd" d="M223.024 430.016C220.756 441.69 214.061 456.58 206.088 465.361C193.252 479.499 166.424 481.706 150.006 489.659C132.792 497.997 111.585 512.361 113.467 534.174C114.757 549.218 125.699 558.597 138.184 565.45C161.201 578.097 189.007 579.157 211.094 593.881C229.563 606.196 232.036 630.515 210.913 641.529C175.954 659.744 122.864 645.871 91.7531 625.436C78.375 616.654 68.5795 604.036 58.9651 591.489C56.456 588.211 51.7755 579.611 46.4918 583.407C37.4927 589.872 44.3327 618.259 46.5885 626.558C58.5071 670.589 93.9488 697.996 138.004 706.682C187.595 716.453 248.901 711.76 293.1 685.535C314.03 673.11 334.272 653.556 336.19 627.958C339.073 589.323 306.816 547.641 295.03 511.497C291.58 500.889 288.817 490.036 286.67 479.09C285.089 471.07 283.787 462.993 282.616 454.904C278.129 423.784 276.331 371.436 233.76 369.977C227.294 369.755 229.273 428.481 223.024 430.016Z" fill="#00FF96"/>
</g>
<path fill-rule="evenodd" clip-rule="evenodd" d="M256.195 317.444C245.293 326.094 210.572 354.512 208.447 364.056C207.049 370.327 235.391 358.431 238.73 362.639C247.151 373.252 268.653 370.231 286.71 355.904C304.773 341.572 312.604 321.32 304.183 310.706C295.762 300.092 274.258 303.112 256.195 317.444Z" fill="#EBEBEB"/>
<mask id="mask8_420_3284" style="mask-type:luminance" maskUnits="userSpaceOnUse" x="208" y="304" width="100" height="65">
<path d="M256.195 317.446C245.294 326.096 210.573 354.514 208.447 364.058C207.05 370.329 235.391 358.433 238.73 362.641C247.151 373.254 268.653 370.233 286.71 355.906C304.774 341.574 312.605 321.322 304.183 310.708C295.762 300.094 274.259 303.114 256.195 317.446Z" fill="white"/>
</mask>
<g mask="url(#mask8_420_3284)">
<path fill-rule="evenodd" clip-rule="evenodd" d="M311.774 295.113C314.656 296.973 269.007 275.039 287.788 307.249C296.084 321.475 288.738 340.065 280.038 352.064C275.638 358.126 270.578 362.948 264.749 366.165C262.561 367.373 260.301 368.33 258.076 369.411C256.978 369.949 255.471 370.663 257.091 371.93C266.037 378.937 278.942 376.042 287.442 369.913C306.619 356.093 317.368 323.327 308.251 295.583" fill="white"/>
</g>
<path fill-rule="evenodd" clip-rule="evenodd" d="M99.5 679.423H774.966V683.859H99.5V679.423Z" fill="#383D3F"/>
<path fill-rule="evenodd" clip-rule="evenodd" d="M4.57812 679.977H76.95V684.691H4.57812V679.977Z" fill="#383D3F"/>
</g>
<defs>
<clipPath id="clip0_420_3284">
<rect width="912" height="912" fill="white"/>
</clipPath>
</defs>
</svg>
