<svg width="159" height="54" viewBox="0 0 159 54" fill="none" xmlns="http://www.w3.org/2000/svg">
<g clip-path="url(#clip0_401_3061)">
<path d="M17.4759 42.6597C30.9918 42.6597 36.0758 36.2738 36.0758 25.6098V0.5H26.2178V25.6098C26.2178 31.4378 24.7918 33.6078 17.4759 33.6078C10.0979 33.6078 8.85794 31.3138 8.85794 25.1759V23.3779H-1V25.1759C-1 36.1498 4.02197 42.6597 17.4759 42.6597Z" fill="black"/>
<path d="M57.2448 42.6597C67.1027 42.6597 73.6747 37.9478 73.6747 31.1898V30.5078H64.3747V31.1278C64.3747 33.7938 62.4527 35.2198 56.9348 35.2198C50.9208 35.2198 48.6888 33.1738 48.4408 28.3998H73.7367C73.8607 27.3458 73.9847 26.5398 73.9847 25.4239C73.9847 15.6899 67.2267 10.3579 57.0588 10.3579C46.8288 10.3579 39.8229 16.6199 39.8229 26.5398C39.8229 37.5758 46.8908 42.6597 57.2448 42.6597ZM56.8728 17.6119C62.3287 17.6119 64.8087 19.4099 65.0567 23.5019H48.5648C48.9988 19.4719 51.3548 17.6119 56.8728 17.6119Z" fill="black"/>
<path d="M99.8143 42.0397V33.6698H94.2343C90.9483 33.6698 89.7704 32.8638 89.7704 29.7638V18.6659H99.8143V10.9779H89.7704V4.96397H80.4704V10.9779H75.5724V18.6659H80.4704V30.8178C80.4704 38.6298 84.8724 42.0397 92.1263 42.0397H99.8143Z" fill="black"/>
<path d="M126.868 52.5803C134.68 52.5803 138.834 50.7823 141.81 44.2723L157.186 10.9785H146.832L140.942 25.1144L138.462 32.4924H137.842L135.238 25.1764L128.666 10.9785H118.126L133.316 42.1643C132.696 43.5283 131.704 44.1483 129.41 44.1483H121.784V52.5803H126.868Z" fill="black"/>
<path d="M122.6 42.0396V33.6697H117.02C113.734 33.6697 112.556 32.8637 112.556 29.7637V18.6658H122.6V10.9778H112.556V4.96387H103.256V10.9778H98.3579V18.6658H103.256V30.8177C103.256 38.6297 107.658 42.0396 114.912 42.0396H122.6Z" fill="black"/>
</g>
<defs>
<clipPath id="clip0_401_3061">
<rect width="159" height="53" fill="white" transform="translate(0 0.5)"/>
</clipPath>
</defs>
</svg>
