<svg width="210" height="70" viewBox="0 0 210 70" fill="none" xmlns="http://www.w3.org/2000/svg">
<g clip-path="url(#clip0_401_3080)">
<path d="M23.0813 55.6827C40.9325 55.6827 47.6472 47.2484 47.6472 33.1639V0H34.6273V33.1639C34.6273 40.8613 32.7439 43.7273 23.0813 43.7273C13.3368 43.7273 11.6991 40.6975 11.6991 32.5907V30.216H-1.3208V32.5907C-1.3208 47.0846 5.31199 55.6827 23.0813 55.6827Z" fill="white"/>
<path d="M75.6063 55.6827C88.6262 55.6827 97.3061 49.4593 97.3061 40.5337V39.633H85.0232V40.4518C85.0232 43.9729 82.4847 45.8563 75.1968 45.8563C67.2539 45.8563 64.306 43.1541 63.9784 36.8488H97.388C97.5518 35.4568 97.7156 34.3922 97.7156 32.9183C97.7156 20.0621 88.7899 13.0199 75.3606 13.0199C61.8494 13.0199 52.5962 21.2904 52.5962 34.3922C52.5962 48.968 61.9312 55.6827 75.6063 55.6827ZM75.1149 22.6006C82.3209 22.6006 85.5964 24.9753 85.9239 30.3798H64.1422C64.7154 25.0572 67.8271 22.6006 75.1149 22.6006Z" fill="white"/>
<path d="M131.83 54.8638V43.8092H124.46C120.12 43.8092 118.565 42.7446 118.565 38.6503V23.9927H131.83V13.8388H118.565V5.89581H106.282V13.8388H99.8126V23.9927H106.282V40.0424C106.282 50.3601 112.096 54.8638 121.676 54.8638H131.83Z" fill="white"/>
<path d="M167.562 68.7851C177.88 68.7851 183.366 66.4104 187.297 57.8123L207.604 13.8394H193.929L186.15 32.5094L182.875 42.2539H182.056L178.617 32.5913L169.937 13.8394H156.016L176.078 55.0282C175.259 56.8297 173.949 57.6485 170.919 57.6485H160.847V68.7851H167.562Z" fill="white"/>
<path d="M161.924 54.864V43.8094H154.555C150.215 43.8094 148.659 42.7448 148.659 38.6505V23.9929H161.924V13.839H148.659V5.896H136.376V13.839H129.907V23.9929H136.376V40.0426C136.376 50.3603 142.19 54.864 151.77 54.864H161.924Z" fill="white"/>
</g>
<defs>
<clipPath id="clip0_401_3080">
<rect width="210" height="70" fill="white"/>
</clipPath>
</defs>
</svg>
